<!-- Generated by IcoMoon.io -->
<svg version="1.1" xmlns="http://www.w3.org/2000/svg" width="64" height="32" viewBox="0 0 64 32">
<title>derevo1</title>
<path d="M42.752 42.752l-42.752 42.731v7.701c0 6.997 0.064 7.787 0.512 8.363 0.427 0.512 1.472 0.832 6.165 1.771 3.136 0.619 5.739 1.195 5.803 1.259 0.085 0.085-2.709 2.987-6.165 6.464l-6.315 6.315v7.701c0 6.997 0.064 7.765 0.512 8.341s3.755 1.28 29.611 6.464c16.021 3.179 29.376 5.739 29.717 5.653 0.32-0.085 19.776-19.307 43.2-42.752l42.603-42.603v-7.765c0-7.68 0-7.765-0.661-8.427-0.512-0.512-1.685-0.832-6.165-1.707-3.051-0.597-5.611-1.131-5.653-1.195-0.085-0.085 2.709-2.987 6.165-6.464l6.315-6.336v-7.616c0-4.459-0.107-7.829-0.277-8.128-0.149-0.277-0.832-0.704-1.472-0.96-1.365-0.491-56.661-11.563-57.728-11.563-0.512 0-10.901 10.219-43.413 42.752zM88.683 5.013c0.597 0.171-0.192 1.045-7.104 8.043-11.691 11.797-18.005 18.773-26.368 29.184-11.072 13.739-21.013 28.331-30.187 44.181-1.024 1.792-1.28 2.069-1.792 1.941-0.341-0.085-3.947-0.789-8.021-1.6-4.075-0.789-7.595-1.515-7.829-1.6-0.491-0.171 79.552-80.32 80.213-80.32 0.235 0 0.725 0.085 1.088 0.171zM97.728 6.827c1.536 0.32 2.837 0.619 2.901 0.704 0.064 0.064-2.475 2.837-5.632 6.165-6.677 6.997-9.728 10.389-12.8 14.165-14.613 18.112-25.003 38.763-30.549 60.885-0.661 2.581-1.259 4.757-1.301 4.8-0.107 0.107-21.312-3.947-21.568-4.117-0.171-0.107 0.747-1.728 3.776-6.805 11.029-18.432 23.787-35.669 38.656-52.203 2.88-3.221 23.403-24.171 23.659-24.171 0.043 0 1.323 0.256 2.859 0.576zM111.296 9.536c2.304 0.448 4.181 0.917 4.181 1.024s-3.413 3.413-7.573 7.36c-9.451 8.981-12.352 12.267-16.811 18.923-6.72 10.091-11.392 22.443-13.013 34.411-0.256 1.877-0.512 3.819-0.597 4.267-0.085 0.683-2.112 2.837-9.579 10.325l-9.493 9.493-1.728-0.341c-0.96-0.192-1.771-0.427-1.771-0.533 0-0.875 2.987-11.328 4.544-15.979 6.165-18.411 16.363-36.352 28.928-50.88 5.141-5.952 17.813-19.115 18.283-18.965 0.235 0.043 2.304 0.469 4.629 0.896zM129.856 13.227c4.373 0.875 8.171 1.643 8.384 1.728 0.256 0.085-9.301 9.835-27.456 27.989-15.339 15.339-27.904 27.755-27.968 27.627-0.149-0.405 1.045-5.909 1.963-9.131 3.477-12.181 10.432-24.405 18.944-33.131 3.669-3.755 17.408-16.64 17.771-16.64 0.213 0 3.968 0.704 8.363 1.557zM101.355 66.048l-39.765 39.765-0.171-6.955 79.531-79.509 0.171 6.955-39.765 39.744zM133.973 45.931c2.112 0.405 4.032 0.789 4.267 0.875 0.256 0.085-6.059 6.592-18.197 18.752-10.24 10.24-18.624 18.581-18.688 18.539-0.021-0.064 0.256-1.28 0.619-2.795 1.515-5.909 4.117-11.413 7.915-16.619 0.789-1.109 5.44-5.995 10.261-10.901 6.912-6.933 8.96-8.875 9.408-8.768 0.32 0.107 2.304 0.491 4.416 0.917zM101.355 97.899l-39.765 39.765-0.171-6.955 79.531-79.509 0.171 6.955-39.765 39.744zM98.411 77.483c-0.96 2.901-2.155 8.043-2.453 10.581l-0.171 1.728-37.376 37.376-2.709-0.491c-1.472-0.277-2.709-0.512-2.752-0.533-0.341-0.192 2.496-6.741 4.373-10.091 1.109-1.963 1.387-2.283 2.048-2.283 0.619 0 4.16-3.413 20.224-19.477 10.731-10.688 19.541-19.435 19.563-19.371 0.085 0.021-0.256 1.195-0.747 2.56zM31.509 94.613l25.365 5.099v4.501c0 4.203-0.021 4.501-0.512 4.416-0.277-0.064-12.053-2.389-26.176-5.205l-25.664-5.12v-9.024l0.789 0.149c0.469 0.064 12.245 2.389 26.197 5.184zM27.797 107.605c0.064 0.064-0.256 0.853-0.661 1.792-0.427 0.917-1.429 3.733-2.283 6.229-0.832 2.496-1.621 4.523-1.728 4.501s-3.605-0.683-7.765-1.515c-4.16-0.789-7.744-1.515-7.936-1.6-0.277-0.085 1.451-2.027 5.205-5.781l5.632-5.632 4.693 0.96c2.624 0.533 4.779 1.024 4.843 1.045zM43.52 110.677c5.547 1.109 10.155 2.048 10.219 2.112s-0.683 1.621-1.621 3.477c-0.939 1.856-2.112 4.501-2.645 5.909-0.512 1.387-1.024 2.645-1.109 2.795-0.149 0.171-20.139-3.648-20.395-3.904-0.107-0.085 1.707-5.717 2.56-7.851 1.451-3.755 1.877-4.544 2.389-4.544 0.277-0.021 5.056 0.896 10.603 2.005zM31.509 126.464l25.365 5.099v4.523c0 4.16-0.021 4.501-0.491 4.373-0.277-0.085-12.053-2.411-26.176-5.227l-25.664-5.099v-9.024l0.789 0.149c0.448 0.085 12.224 2.411 26.176 5.205z"></path>
</svg>
