<svg xmlns="http://www.w3.org/2000/svg" xml:space="preserve" viewBox="0 0 682.7 682.7"><path d="M200.4 200.4 0 400.7v36.1c0 32.8.3 36.5 2.4 39.2 2 2.4 6.9 3.9 28.9 8.3 14.7 2.9 26.9 5.6 27.2 5.9.4.4-12.7 14-28.9 30.3L0 550.1v36.1c0 32.8.3 36.4 2.4 39.1 2.1 2.7 17.6 6 138.8 30.3 75.1 14.9 137.7 26.9 139.3 26.5 1.5-.4 92.7-90.5 202.5-200.4L682.7 282v-36.4c0-36 0-36.4-3.1-39.5-2.4-2.4-7.9-3.9-28.9-8-14.3-2.8-26.3-5.3-26.5-5.6-.4-.4 12.7-14 28.9-30.3l29.6-29.7V96.8c0-20.9-.5-36.7-1.3-38.1-.7-1.3-3.9-3.3-6.9-4.5C668.1 51.9 408.9 0 403.9 0c-2.4 0-51.1 47.9-203.5 200.4zM415.7 23.5c2.8.8-.9 4.9-33.3 37.7-54.8 55.3-84.4 88-123.6 136.8-51.9 64.4-98.5 132.8-141.5 207.1-4.8 8.4-6 9.7-8.4 9.1-1.6-.4-18.5-3.7-37.6-7.5-19.1-3.7-35.6-7.1-36.7-7.5-2.3-.8 372.9-376.5 376-376.5 1.1 0 3.4.4 5.1.8zm42.4 8.5c7.2 1.5 13.3 2.9 13.6 3.3.3.3-11.6 13.3-26.4 28.9-31.3 32.8-45.6 48.7-60 66.4-68.5 84.9-117.2 181.7-143.2 285.4-3.1 12.1-5.9 22.3-6.1 22.5-.5.5-99.9-18.5-101.1-19.3-.8-.5 3.5-8.1 17.7-31.9 51.7-86.4 111.5-167.2 181.2-244.7 13.5-15.1 109.7-113.3 110.9-113.3.2 0 6.2 1.2 13.4 2.7zm63.6 12.7c10.8 2.1 19.6 4.3 19.6 4.8s-16 16-35.5 34.5c-44.3 42.1-57.9 57.5-78.8 88.7-31.5 47.3-53.4 105.2-61 161.3-1.2 8.8-2.4 17.9-2.8 20-.4 3.2-9.9 13.3-44.9 48.4l-44.5 44.5-8.1-1.6c-4.5-.9-8.3-2-8.3-2.5 0-4.1 14-53.1 21.3-74.9 28.9-86.3 76.7-170.4 135.6-238.5 24.1-27.9 83.5-89.6 85.7-88.9 1.1.2 10.8 2.2 21.7 4.2zm87 17.3c20.5 4.1 38.3 7.7 39.3 8.1 1.2.4-43.6 46.1-128.7 131.2-71.9 71.9-130.8 130.1-131.1 129.5-.7-1.9 4.9-27.7 9.2-42.8 16.3-57.1 48.9-114.4 88.8-155.3 17.2-17.6 81.6-78 83.3-78 1 0 18.6 3.3 39.2 7.3zM475.1 309.6 288.7 496l-.4-16.3-.4-16.3L474.3 277 660.7 90.7l.4 16.3.4 16.3-186.4 186.3zM628 215.3c9.9 1.9 18.9 3.7 20 4.1 1.2.4-28.4 30.9-85.3 87.9-48 48-87.3 87.1-87.6 86.9-.1-.3 1.2-6 2.9-13.1 7.1-27.7 19.3-53.5 37.1-77.9 3.7-5.2 25.5-28.1 48.1-51.1 32.4-32.5 42-41.6 44.1-41.1 1.5.5 10.8 2.3 20.7 4.3zM475.1 458.9 288.7 645.3l-.4-16.3-.4-16.3 186.4-186.4L660.7 240l.4 16.3.4 16.3-186.4 186.3zm-13.8-95.7c-4.5 13.6-10.1 37.7-11.5 49.6l-.8 8.1-87.6 87.6-87.6 87.6-12.7-2.3c-6.9-1.3-12.7-2.4-12.9-2.5-1.6-.9 11.7-31.6 20.5-47.3 5.2-9.2 6.5-10.7 9.6-10.7 2.9 0 19.5-16 94.8-91.3 50.3-50.1 91.6-91.1 91.7-90.8.4.1-1.2 5.6-3.5 12zm-313.6 80.3 118.9 23.9v21.1c0 19.7-.1 21.1-2.4 20.7-1.3-.3-56.5-11.2-122.7-24.4l-120.3-24v-42.3l3.7.7c2.2.3 57.4 11.2 122.8 24.3zm-17.4 60.9c.3.3-1.2 4-3.1 8.4-2 4.3-6.7 17.5-10.7 29.2-3.9 11.7-7.6 21.2-8.1 21.1-.5-.1-16.9-3.2-36.4-7.1-19.5-3.7-36.3-7.1-37.2-7.5-1.3-.4 6.8-9.5 24.4-27.1L85.6 495l22 4.5c12.3 2.5 22.4 4.8 22.7 4.9zm73.7 14.4c26 5.2 47.6 9.6 47.9 9.9s-3.2 7.6-7.6 16.3c-4.4 8.7-9.9 21.1-12.4 27.7-2.4 6.5-4.8 12.4-5.2 13.1-.7.8-94.4-17.1-95.6-18.3-.5-.4 8-26.8 12-36.8 6.8-17.6 8.8-21.3 11.2-21.3 1.3-.1 23.7 4.2 49.7 9.4zm-56.3 74 118.9 23.9v21.2c0 19.5-.1 21.1-2.3 20.5-1.3-.4-56.5-11.3-122.7-24.5L21.3 610v-42.3l3.7.7c2.1.4 57.3 11.3 122.7 24.4z" style="fill:#6adbbd"/></svg>