<?xml version="1.0" encoding="utf-8"?>
<!-- Generator: Adobe Illustrator 26.3.1, SVG Export Plug-In . SVG Version: 6.00 Build 0)  -->
<svg version="1.1" id="Layer_1" xmlns="http://www.w3.org/2000/svg" xmlns:xlink="http://www.w3.org/1999/xlink" x="0px" y="0px"
	 viewBox="0 0 682.7 682.7"  xml:space="preserve">
<style type="text/css">
	.st0{fill:#6ADBBD;}
</style>
<path class="st0" d="M200.4,200.4L0,400.7v36.1c0,32.8,0.3,36.5,2.4,39.2c2,2.4,6.9,3.9,28.9,8.3c14.7,2.9,26.9,5.6,27.2,5.9
	c0.4,0.4-12.7,14-28.9,30.3L0,550.1v36.1c0,32.8,0.3,36.4,2.4,39.1c2.1,2.7,17.6,6,138.8,30.3c75.1,14.9,137.7,26.9,139.3,26.5
	c1.5-0.4,92.7-90.5,202.5-200.4L682.7,282v-36.4c0-36,0-36.4-3.1-39.5c-2.4-2.4-7.9-3.9-28.9-8c-14.3-2.8-26.3-5.3-26.5-5.6
	c-0.4-0.4,12.7-14,28.9-30.3l29.6-29.7V96.8c0-20.9-0.5-36.7-1.3-38.1c-0.7-1.3-3.9-3.3-6.9-4.5C668.1,51.9,408.9,0,403.9,0
	C401.5,0,352.8,47.9,200.4,200.4L200.4,200.4z M415.7,23.5c2.8,0.8-0.9,4.9-33.3,37.7c-54.8,55.3-84.4,88-123.6,136.8
	c-51.9,64.4-98.5,132.8-141.5,207.1c-4.8,8.4-6,9.7-8.4,9.1c-1.6-0.4-18.5-3.7-37.6-7.5c-19.1-3.7-35.6-7.1-36.7-7.5
	c-2.3-0.8,372.9-376.5,376-376.5C411.7,22.7,414,23.1,415.7,23.5z M458.1,32c7.2,1.5,13.3,2.9,13.6,3.3c0.3,0.3-11.6,13.3-26.4,28.9
	c-31.3,32.8-45.6,48.7-60,66.4C316.8,215.5,268.1,312.3,242.1,416c-3.1,12.1-5.9,22.3-6.1,22.5c-0.5,0.5-99.9-18.5-101.1-19.3
	c-0.8-0.5,3.5-8.1,17.7-31.9c51.7-86.4,111.5-167.2,181.2-244.7c13.5-15.1,109.7-113.3,110.9-113.3C444.9,29.3,450.9,30.5,458.1,32z
	 M521.7,44.7c10.8,2.1,19.6,4.3,19.6,4.8s-16,16-35.5,34.5c-44.3,42.1-57.9,57.5-78.8,88.7C395.5,220,373.6,277.9,366,334
	c-1.2,8.8-2.4,17.9-2.8,20c-0.4,3.2-9.9,13.3-44.9,48.4l-44.5,44.5l-8.1-1.6c-4.5-0.9-8.3-2-8.3-2.5c0-4.1,14-53.1,21.3-74.9
	c28.9-86.3,76.7-170.4,135.6-238.5c24.1-27.9,83.5-89.6,85.7-88.9C501.1,40.7,510.8,42.7,521.7,44.7L521.7,44.7z M608.7,62
	c20.5,4.1,38.3,7.7,39.3,8.1c1.2,0.4-43.6,46.1-128.7,131.2c-71.9,71.9-130.8,130.1-131.1,129.5c-0.7-1.9,4.9-27.7,9.2-42.8
	c16.3-57.1,48.9-114.4,88.8-155.3c17.2-17.6,81.6-78,83.3-78C570.5,54.7,588.1,58,608.7,62z M475.1,309.6L288.7,496l-0.4-16.3
	l-0.4-16.3l186.4-186.4L660.7,90.7l0.4,16.3l0.4,16.3L475.1,309.6z M628,215.3c9.9,1.9,18.9,3.7,20,4.1c1.2,0.4-28.4,30.9-85.3,87.9
	c-48,48-87.3,87.1-87.6,86.9c-0.1-0.3,1.2-6,2.9-13.1c7.1-27.7,19.3-53.5,37.1-77.9c3.7-5.2,25.5-28.1,48.1-51.1
	c32.4-32.5,42-41.6,44.1-41.1C608.8,211.5,618.1,213.3,628,215.3L628,215.3z M475.1,458.9L288.7,645.3l-0.4-16.3l-0.4-16.3
	l186.4-186.4L660.7,240l0.4,16.3l0.4,16.3L475.1,458.9z M461.3,363.2c-4.5,13.6-10.1,37.7-11.5,49.6l-0.8,8.1l-87.6,87.6l-87.6,87.6
	l-12.7-2.3c-6.9-1.3-12.7-2.4-12.9-2.5c-1.6-0.9,11.7-31.6,20.5-47.3c5.2-9.2,6.5-10.7,9.6-10.7c2.9,0,19.5-16,94.8-91.3
	c50.3-50.1,91.6-91.1,91.7-90.8C465.2,351.3,463.6,356.8,461.3,363.2L461.3,363.2z M147.7,443.5l118.9,23.9v21.1
	c0,19.7-0.1,21.1-2.4,20.7c-1.3-0.3-56.5-11.2-122.7-24.4l-120.3-24v-42.3l3.7,0.7C27.1,419.5,82.3,430.4,147.7,443.5L147.7,443.5z
	 M130.3,504.4c0.3,0.3-1.2,4-3.1,8.4c-2,4.3-6.7,17.5-10.7,29.2c-3.9,11.7-7.6,21.2-8.1,21.1c-0.5-0.1-16.9-3.2-36.4-7.1
	c-19.5-3.7-36.3-7.1-37.2-7.5c-1.3-0.4,6.8-9.5,24.4-27.1l26.4-26.4l22,4.5C119.9,502,130,504.3,130.3,504.4L130.3,504.4z
	 M204,518.8c26,5.2,47.6,9.6,47.9,9.9s-3.2,7.6-7.6,16.3c-4.4,8.7-9.9,21.1-12.4,27.7c-2.4,6.5-4.8,12.4-5.2,13.1
	c-0.7,0.8-94.4-17.1-95.6-18.3c-0.5-0.4,8-26.8,12-36.8c6.8-17.6,8.8-21.3,11.2-21.3C155.6,509.3,178,513.6,204,518.8L204,518.8z
	 M147.7,592.8l118.9,23.9v21.2c0,19.5-0.1,21.1-2.3,20.5c-1.3-0.4-56.5-11.3-122.7-24.5L21.3,610v-42.3l3.7,0.7
	C27.1,568.8,82.3,579.7,147.7,592.8L147.7,592.8z"/>
</svg>
