<svg aria-hidden="true" style="position: absolute; width: 0; height: 0; overflow: hidden;" version="1.1" xmlns="http://www.w3.org/2000/svg" xmlns:xlink="http://www.w3.org/1999/xlink">
<defs>
<symbol id="download" viewBox="0 0 42 32">
<path d="M33.958 12.982c-0.43-6.61-5.027-12.982-13.458-12.982-1.029 0-2.044 0.1-3.018 0.297-0.271 0.055-0.445 0.318-0.391 0.59 0.055 0.271 0.314 0.445 0.59 0.391 0.908-0.185 1.857-0.278 2.819-0.278 8.588 0 12.5 6.739 12.5 13v1.5c0 0.276 0.224 0.5 0.5 0.5s0.5-0.224 0.5-0.5v-1.5c0-0.005-0.001-0.011-0.001-0.016 3.063 0.264 7.001 2.932 7.001 8.516 0 4.767-3.514 8.5-8 8.5h-24c-3.976 0-8-2.92-8-8.5 0-4.094 2.504-8.5 8-8.5h1.5c0.276 0 0.5-0.224 0.5-0.5s-0.224-0.5-0.5-0.5h-1.5v-2c0-3.727 2.299-6.042 6-6.042 3.364 0 6 2.654 6 6.042v12.993l-4.16-3.86c-0.2-0.188-0.517-0.177-0.706 0.026s-0.177 0.519 0.026 0.706l4.516 4.189c0.299 0.298 0.563 0.445 0.827 0.445 0.261 0 0.52-0.145 0.808-0.433l4.529-4.202c0.203-0.188 0.215-0.504 0.026-0.706-0.188-0.204-0.506-0.215-0.706-0.026l-4.16 3.861v-12.993c0-3.949-3.075-7.042-7-7.042-4.252 0-7 2.764-7 7.042v2.051c-5.255 0.508-8 5.003-8 9.449 0 4.605 3.154 9.5 9 9.5h24c5.047 0 9-4.173 9-9.5 0-6.304-4.557-9.278-8.042-9.518z"></path>
</symbol>
<symbol id="desktop" viewBox="0 0 39 32">
<path d="M1.5 25h17.5v1.5c0 0.276 0.224 0.5 0.5 0.5s0.5-0.224 0.5-0.5v-1.5h17.5c0.827 0 1.5-0.673 1.5-1.5v-22c0-0.827-0.673-1.5-1.5-1.5h-36c-0.827 0-1.5 0.673-1.5 1.5v22c0 0.827 0.673 1.5 1.5 1.5zM1 1.5c0-0.276 0.224-0.5 0.5-0.5h36c0.276 0 0.5 0.224 0.5 0.5v22c0 0.276-0.224 0.5-0.5 0.5h-36c-0.276 0-0.5-0.224-0.5-0.5v-22zM3.5 22h32c0.276 0 0.5-0.224 0.5-0.5v-18c0-0.276-0.224-0.5-0.5-0.5h-32c-0.276 0-0.5 0.224-0.5 0.5v18c0 0.276 0.224 0.5 0.5 0.5zM4 4h31v17h-31v-17zM14 28c-1.14 0-2 0.86-2 2v1.5c0 0.276 0.224 0.5 0.5 0.5h14c0.276 0 0.5-0.224 0.5-0.5v-1.425c0-1.163-0.878-2.075-2-2.075h-11zM26 30.075v0.925h-13v-1c0-0.589 0.411-1 1-1h11c0.57 0 1 0.462 1 1.075z"></path>
</symbol>
<symbol id="genius" viewBox="0 0 30 32">
<path d="M0.567 24c0.785 1.36 2.548 2.079 5.097 2.079 0 0 0 0 0.001 0 1.146 0 2.407-0.161 3.722-0.438 1.266 3.879 3.287 6.359 5.613 6.359s4.347-2.48 5.613-6.359c1.316 0.276 2.577 0.438 3.723 0.438 0 0 0 0 0 0 2.548 0 4.311-0.719 5.096-2.079 1.016-1.761 0.117-4.72-2.966-8 3.083-3.28 3.982-6.239 2.966-8-0.785-1.36-2.548-2.079-5.097-2.079-1.146 0-2.408 0.161-3.723 0.438-1.265-3.879-3.286-6.359-5.612-6.359s-4.347 2.48-5.613 6.359c-1.316-0.277-2.578-0.438-3.723-0.438-2.549 0-4.312 0.719-5.097 2.079-1.016 1.761-0.117 4.72 2.966 8-3.083 3.28-3.983 6.239-2.966 8zM15 31c-1.839 0-3.516-2.199-4.627-5.579 1.503-0.381 3.066-0.92 4.627-1.599 1.561 0.679 3.124 1.218 4.627 1.599-1.111 3.38-2.788 5.579-4.627 5.579zM9 16c0-1.164 0.062-2.297 0.168-3.393 0.893-0.622 1.837-1.228 2.832-1.803 0.984-0.568 1.991-1.077 3-1.533 1.009 0.455 2.016 0.964 3 1.533 0.995 0.574 1.938 1.18 2.832 1.803 0.106 1.096 0.168 2.229 0.168 3.393s-0.062 2.297-0.168 3.393c-0.893 0.622-1.837 1.228-2.832 1.803-0.984 0.568-1.991 1.077-3 1.533-1.009-0.455-2.016-0.964-3-1.533-0.995-0.574-1.938-1.18-2.832-1.803-0.106-1.096-0.168-2.229-0.168-3.393zM8.098 18.623c-1.146-0.861-2.184-1.745-3.086-2.623 0.902-0.878 1.94-1.762 3.086-2.623-0.059 0.854-0.098 1.725-0.098 2.623s0.039 1.769 0.098 2.623zM9.321 11.286c0.184-1.341 0.442-2.604 0.764-3.754 1.195 0.301 2.435 0.717 3.682 1.219-0.762 0.369-1.522 0.757-2.267 1.187-0.773 0.447-1.488 0.897-2.179 1.348zM16.232 8.751c1.247-0.502 2.487-0.918 3.682-1.219 0.322 1.15 0.58 2.413 0.764 3.754-0.69-0.451-1.406-0.901-2.179-1.348-0.744-0.43-1.504-0.818-2.267-1.187zM21.902 13.377c1.147 0.861 2.184 1.744 3.086 2.623-0.902 0.878-1.94 1.762-3.086 2.623 0.059-0.854 0.098-1.725 0.098-2.623s-0.039-1.769-0.098-2.623zM20.679 20.714c-0.184 1.341-0.442 2.604-0.764 3.754-1.195-0.301-2.435-0.717-3.682-1.219 0.763-0.368 1.523-0.757 2.268-1.187 0.772-0.447 1.487-0.897 2.178-1.348zM11.5 22.062c0.745 0.43 1.505 0.819 2.268 1.187-1.247 0.502-2.487 0.918-3.682 1.219-0.322-1.15-0.58-2.413-0.764-3.754 0.69 0.451 1.405 0.901 2.178 1.348zM28.567 23.5c-0.588 1.019-2.090 1.579-4.23 1.579-1.056 0-2.218-0.146-3.432-0.395 0.396-1.424 0.693-3.008 0.877-4.708 1.546-1.084 2.851-2.168 3.94-3.229 2.532 2.682 3.726 5.226 2.845 6.753zM24.336 6.921c2.14 0 3.643 0.561 4.23 1.579 0.882 1.527-0.313 4.071-2.845 6.753-1.089-1.060-2.394-2.145-3.94-3.229-0.184-1.7-0.481-3.284-0.877-4.708 1.214-0.249 2.377-0.395 3.432-0.395zM15 1c1.839 0 3.516 2.199 4.627 5.579-1.503 0.381-3.066 0.92-4.627 1.599-1.561-0.679-3.124-1.218-4.627-1.599 1.111-3.38 2.788-5.579 4.627-5.579zM1.433 8.5c0.588-1.019 2.090-1.579 4.23-1.579 1.056 0 2.218 0.146 3.432 0.395-0.396 1.424-0.693 3.008-0.877 4.708-1.546 1.084-2.851 2.168-3.94 3.229-2.532-2.682-3.726-5.226-2.845-6.753zM4.278 16.747c1.089 1.060 2.394 2.145 3.94 3.229 0.184 1.7 0.481 3.284 0.877 4.708-1.213 0.249-2.375 0.395-3.431 0.395 0 0-0.001 0-0.001 0-2.14 0-3.643-0.561-4.23-1.579-0.881-1.527 0.313-4.071 2.845-6.753zM15 18.5c1.378 0 2.5-1.121 2.5-2.5s-1.122-2.5-2.5-2.5-2.5 1.121-2.5 2.5 1.122 2.5 2.5 2.5zM15 14.5c0.827 0 1.5 0.673 1.5 1.5s-0.673 1.5-1.5 1.5-1.5-0.673-1.5-1.5 0.673-1.5 1.5-1.5z"></path>
</symbol>
<symbol id="briefcase" viewBox="0 0 38 32">
<path d="M37.5 18c-0.276 0-0.5 0.224-0.5 0.5v12c0 0.276-0.224 0.5-0.5 0.5h-35c-0.276 0-0.5-0.224-0.5-0.5v-12c0-0.276-0.224-0.5-0.5-0.5s-0.5 0.224-0.5 0.5v12c0 0.827 0.673 1.5 1.5 1.5h35c0.827 0 1.5-0.673 1.5-1.5v-12c0-0.276-0.224-0.5-0.5-0.5zM25.5 5c0.276 0 0.5-0.224 0.5-0.5v-3c0-0.827-0.673-1.5-1.5-1.5h-11c-0.827 0-1.5 0.673-1.5 1.5v3c0 0.276 0.224 0.5 0.5 0.5s0.5-0.224 0.5-0.5v-3c0-0.276 0.224-0.5 0.5-0.5h11c0.276 0 0.5 0.224 0.5 0.5v3c0 0.276 0.224 0.5 0.5 0.5zM36.5 7h-35c-0.827 0-1.5 0.673-1.5 1.5v4.958c0 2.778 9.456 6.5 19.125 6.5 9.543 0 18.875-3.722 18.875-6.5v-4.958c0-0.827-0.673-1.5-1.5-1.5zM37 13.458c0 1.764-8.457 5.5-17.875 5.5-9.55 0-18.125-3.735-18.125-5.5v-4.958c0-0.276 0.224-0.5 0.5-0.5h35c0.276 0 0.5 0.224 0.5 0.5v4.958zM19.125 23c0.943 0 1.923-0.039 2.914-0.116 0.275-0.021 0.481-0.262 0.459-0.538-0.021-0.275-0.252-0.486-0.538-0.459-2.014 0.157-3.909 0.15-5.919-0.020-0.264-0.027-0.517 0.181-0.54 0.456s0.181 0.517 0.456 0.54c1.076 0.091 2.142 0.137 3.168 0.137z"></path>
</symbol>
<symbol id="lightbulb" viewBox="0 0 22 32">
<path d="M11 0c-5.29 0-11 4.206-11 11 0 3.353 1.334 6.174 3.896 8.312 0.027 0.034 0.058 0.063 0.092 0.088 1.901 2.062 1.997 2.454 2.010 3.361 0.006 0.359 0.003 0.465 0 0.523l-0.004 0.209c-0.015 0.452-0.038 1.209 0.899 1.495l8.094 1.781c0.036 0.008 0.072 0.012 0.107 0.012 0.23 0 0.437-0.159 0.488-0.393 0.060-0.27-0.111-0.537-0.381-0.596l-8.055-1.771c-0.155-0.047-0.168-0.051-0.154-0.498l0.003-0.191c0 0 0.010-0.078 0.002-0.586-0.019-1.269-0.295-1.882-2.309-4.059-0.039-0.048-0.086-0.088-0.138-0.118-2.356-2.003-3.55-4.549-3.55-7.569 0-6.177 5.19-10 10-10 4.916 0 10 3.741 10 10 0 3.978-1.928 6.171-3.518 7.551-0.055 0.026-0.104 0.063-0.147 0.109-2.037 2.204-2.313 2.817-2.332 4.086 0 0.030-0.001 0.065 0 0.103l-0.001 0.035c-0.003 0.076-0.014 0.118-0.013 0.134-0.034-0.005-0.117-0.018-0.117-0.018l-4.195-0.987c-0.272-0.062-0.538 0.104-0.601 0.372s0.103 0.538 0.372 0.602l4.144 0.972c0.055 0.020 0.553 0.182 0.973-0.113 0.183-0.129 0.396-0.382 0.434-0.866l0.003-0.047c0.001-0.032 0.002-0.065 0.002-0.099 0-0.009 0-0.018-0.001-0.026l0.001-0.046c0.013-0.902 0.107-1.294 2.005-3.356 0.009-0.007 0.019-0.014 0.027-0.022 2.667-2.241 3.964-4.984 3.964-8.384 0-6.885-5.593-11-11-11zM15 29.5c0.229 0 0.435-0.157 0.487-0.39 0.062-0.269-0.107-0.537-0.377-0.598l-8-1.814c-0.271-0.060-0.537 0.108-0.598 0.377-0.062 0.269 0.107 0.537 0.377 0.598l8 1.814c0.038 0.009 0.075 0.013 0.111 0.013zM7.609 29.554c-0.271-0.060-0.536 0.109-0.598 0.378-0.060 0.27 0.109 0.537 0.379 0.597l6.5 1.458c0.038 0.009 0.074 0.013 0.11 0.013 0.229 0 0.436-0.158 0.488-0.391 0.060-0.27-0.109-0.537-0.379-0.597l-6.5-1.458z"></path>
</symbol>
<symbol id="tools" viewBox="0 0 31 32">
<path d="M0.211 5.646c-0.847 0.848-0.666 2.042 0.008 2.715 0.027 0.026 2.734 2.612 6.541 6.419 0.098 0.098 0.226 0.146 0.354 0.146s0.256-0.049 0.354-0.146c0.195-0.195 0.195-0.512 0-0.707-0.574-0.574-1.12-1.117-1.638-1.631l1.589-1.589c0.195-0.195 0.195-0.512 0-0.707s-0.512-0.195-0.707 0l-1.593 1.593c-0.891-0.88-1.676-1.648-2.315-2.271l3.615-3.615c0.195-0.195 0.195-0.512 0-0.707s-0.512-0.195-0.707 0l-3.626 3.626c-0.736-0.713-1.16-1.118-1.167-1.125-0.211-0.211-0.488-0.805 0-1.293l5-5c0.193-0.196 0.707-0.585 1.271-0.024 0.025 0.028 2.55 2.896 6.404 6.75 0.195 0.195 0.512 0.195 0.707 0s0.195-0.512 0-0.707c-3.83-3.829-6.336-6.675-6.382-6.727-0.932-0.93-2.056-0.651-2.707 0l-5.001 5zM21.419 24.146c-0.195-0.195-0.512-0.195-0.707 0l-1.591 1.59c-0.485-0.491-0.994-1.005-1.53-1.541-0.195-0.195-0.512-0.195-0.707 0s-0.195 0.512 0 0.707c3.704 3.703 6.291 6.469 6.328 6.509 0.343 0.344 0.813 0.533 1.323 0.533v0c0.525 0 1.056-0.205 1.385-0.535l4.998-5.057c0.629-0.629 0.665-1.696 0.078-2.285l-6.706-6.705c-0.195-0.195-0.512-0.195-0.707 0s-0.195 0.512 0 0.707l6.706 6.705c0.2 0.2 0.162 0.632-0.079 0.873l-4.999 5.057c-0.115 0.116-0.376 0.24-0.676 0.24 0 0 0 0 0 0-0.172 0-0.418-0.042-0.604-0.229-0.010-0.011-0.429-0.458-1.156-1.219l3.644-3.644c0.195-0.195 0.195-0.512 0-0.707s-0.512-0.195-0.707 0l-3.629 3.629c-0.624-0.649-1.389-1.438-2.26-2.326l1.596-1.596c0.195-0.194 0.195-0.51 0-0.706zM-0.293 31.829c0.096 0.098 0.225 0.15 0.358 0.15 0.048 0 0.096-0.007 0.143-0.021l10-2.979c0.081-0.024 0.153-0.067 0.212-0.127l17.090-17.205c0.024-0.024 0.036-0.055 0.054-0.082l3.656-3.656c0.294-0.295 0.457-0.686 0.457-1.103s-0.163-0.807-0.457-1.1l-5.235-5.234c-0.588-0.588-1.615-0.588-2.203 0l-3.739 3.739c-0.024 0.024-0.037 0.055-0.055 0.083l-17.116 17.117c-0.056 0.056-0.098 0.124-0.122 0.199l-3.16 9.715c-0.058 0.177-0.013 0.37 0.117 0.504zM20.425 5.271l1.039 1.039-15.523 15.565-1.727-0.392 16.211-16.212zM6.565 22.666l15.607-15.648 2.436 2.436-15.748 15.546h-2.295v-2.334zM26.449 11.296l-16.244 16.354-0.577-2.002 15.687-15.487 1.134 1.135zM3.558 22.359l2.007 0.456v2.685c0 0.276 0.224 0.5 0.5 0.5h2.624l0.634 2.2-8.488 2.529 2.723-8.37zM24.49 1.179c0.211-0.211 0.578-0.211 0.789 0l5.235 5.235c0.105 0.105 0.163 0.245 0.163 0.394 0 0.148-0.058 0.289-0.164 0.395l-3.371 3.372-6.023-6.023 3.371-3.373z"></path>
</symbol>
<symbol id="instagram" viewBox="0 0 20 20">
<path d="M17 1h-14c-1.1 0-2 0.9-2 2v14c0 1.101 0.9 2 2 2h14c1.1 0 2-0.899 2-2v-14c0-1.1-0.9-2-2-2zM9.984 15.523c3.059 0 5.538-2.481 5.538-5.539 0-0.338-0.043-0.664-0.103-0.984h1.581v7.216c0 0.382-0.31 0.69-0.693 0.69h-12.614c-0.383 0-0.693-0.308-0.693-0.69v-7.216h1.549c-0.061 0.32-0.104 0.646-0.104 0.984 0 3.059 2.481 5.539 5.539 5.539zM6.523 9.984c0-1.912 1.55-3.461 3.462-3.461s3.462 1.549 3.462 3.461-1.551 3.462-3.462 3.462c-1.913 0-3.462-1.55-3.462-3.462zM16.307 6h-1.615c-0.382 0-0.692-0.312-0.692-0.692v-1.617c0-0.382 0.31-0.691 0.691-0.691h1.615c0.384 0 0.694 0.309 0.694 0.691v1.616c0 0.381-0.31 0.693-0.693 0.693z"></path>
</symbol>
<symbol id="facebook" viewBox="0 0 32 32">
<path d="M19 6h5v-6h-5c-3.86 0-7 3.14-7 7v3h-4v6h4v16h6v-16h5l1-6h-6v-3c0-0.542 0.458-1 1-1z"></path>
</symbol>
</defs>
</svg>
