<svg xmlns="http://www.w3.org/2000/svg" aria-hidden="true" style="position:absolute;width:0;height:0;overflow:hidden"><defs><symbol id="download" viewBox="0 0 42 32"><path d="M33.958 12.982C33.528 6.372 28.931 0 20.5 0c-1.029 0-2.044.1-3.018.297a.5.5 0 0 0 .199.981A14.156 14.156 0 0 1 20.5 1C29.088 1 33 7.739 33 14v1.5a.5.5 0 0 0 1 0V14l-.001-.016C37.062 14.248 41 16.916 41 22.5c0 4.767-3.514 8.5-8 8.5H9c-3.976 0-8-2.92-8-8.5C1 18.406 3.504 14 9 14h1.5a.5.5 0 0 0 0-1H9v-2c0-3.727 2.299-6.042 6-6.042 3.364 0 6 2.654 6 6.042v12.993l-4.16-3.86a.499.499 0 1 0-.68.732l4.516 4.189c.299.298.563.445.827.445.261 0 .52-.145.808-.433l4.529-4.202a.498.498 0 0 0 .026-.706.497.497 0 0 0-.706-.026L22 23.993V11c0-3.949-3.075-7.042-7-7.042-4.252 0-7 2.764-7 7.042v2.051c-5.255.508-8 5.003-8 9.449C0 27.105 3.154 32 9 32h24c5.047 0 9-4.173 9-9.5 0-6.304-4.557-9.278-8.042-9.518z"/></symbol><symbol id="desktop" viewBox="0 0 39 32"><path d="M1.5 25H19v1.5a.5.5 0 0 0 1 0V25h17.5c.827 0 1.5-.673 1.5-1.5v-22c0-.827-.673-1.5-1.5-1.5h-36C.673 0 0 .673 0 1.5v22c0 .827.673 1.5 1.5 1.5zM1 1.5a.5.5 0 0 1 .5-.5h36a.5.5 0 0 1 .5.5v22a.5.5 0 0 1-.5.5h-36a.5.5 0 0 1-.5-.5v-22zM3.5 22h32a.5.5 0 0 0 .5-.5v-18a.5.5 0 0 0-.5-.5h-32a.5.5 0 0 0-.5.5v18a.5.5 0 0 0 .5.5zM4 4h31v17H4V4zm10 24c-1.14 0-2 .86-2 2v1.5a.5.5 0 0 0 .5.5h14a.5.5 0 0 0 .5-.5v-1.425C27 28.912 26.122 28 25 28H14zm12 2.075V31H13v-1c0-.589.411-1 1-1h11c.57 0 1 .462 1 1.075z"/></symbol><symbol id="genius" viewBox="0 0 30 32"><path d="M.567 24c.785 1.36 2.548 2.079 5.097 2.079h.001c1.146 0 2.407-.161 3.722-.438C10.653 29.52 12.674 32 15 32s4.347-2.48 5.613-6.359c1.316.276 2.577.438 3.723.438 2.548 0 4.311-.719 5.096-2.079 1.016-1.761.117-4.72-2.966-8 3.083-3.28 3.982-6.239 2.966-8-.785-1.36-2.548-2.079-5.097-2.079-1.146 0-2.408.161-3.723.438C19.347 2.48 17.326 0 15 0s-4.347 2.48-5.613 6.359c-1.316-.277-2.578-.438-3.723-.438C3.115 5.921 1.352 6.64.567 8-.449 9.761.45 12.72 3.533 16 .45 19.28-.45 22.239.567 24zM15 31c-1.839 0-3.516-2.199-4.627-5.579A30.441 30.441 0 0 0 15 23.822a30.441 30.441 0 0 0 4.627 1.599C18.516 28.801 16.839 31 15 31zM9 16c0-1.164.062-2.297.168-3.393A39.798 39.798 0 0 1 12 10.804a34.07 34.07 0 0 1 3-1.533c1.009.455 2.016.964 3 1.533a39.32 39.32 0 0 1 2.832 1.803C20.938 13.703 21 14.836 21 16s-.062 2.297-.168 3.393A39.798 39.798 0 0 1 18 21.196a34.07 34.07 0 0 1-3 1.533 33.533 33.533 0 0 1-3-1.533 39.32 39.32 0 0 1-2.832-1.803A35.231 35.231 0 0 1 9 16zm-.902 2.623A31.979 31.979 0 0 1 5.012 16a31.979 31.979 0 0 1 3.086-2.623C8.039 14.231 8 15.102 8 16s.039 1.769.098 2.623zm1.223-7.337a28.23 28.23 0 0 1 .764-3.754 28.76 28.76 0 0 1 3.682 1.219c-.762.369-1.522.757-2.267 1.187a47.01 47.01 0 0 0-2.179 1.348zm6.911-2.535a28.76 28.76 0 0 1 3.682-1.219c.322 1.15.58 2.413.764 3.754a46.484 46.484 0 0 0-2.179-1.348 34.739 34.739 0 0 0-2.267-1.187zm5.67 4.626A31.718 31.718 0 0 1 24.988 16a31.979 31.979 0 0 1-3.086 2.623c.059-.854.098-1.725.098-2.623s-.039-1.769-.098-2.623zm-1.223 7.337a28.23 28.23 0 0 1-.764 3.754 28.76 28.76 0 0 1-3.682-1.219 34.53 34.53 0 0 0 2.268-1.187 47.502 47.502 0 0 0 2.178-1.348zM11.5 22.062c.745.43 1.505.819 2.268 1.187a28.76 28.76 0 0 1-3.682 1.219 28.23 28.23 0 0 1-.764-3.754c.69.451 1.405.901 2.178 1.348zM28.567 23.5c-.588 1.019-2.09 1.579-4.23 1.579-1.056 0-2.218-.146-3.432-.395a29.53 29.53 0 0 0 .877-4.708c1.546-1.084 2.851-2.168 3.94-3.229 2.532 2.682 3.726 5.226 2.845 6.753zM24.336 6.921c2.14 0 3.643.561 4.23 1.579.882 1.527-.313 4.071-2.845 6.753-1.089-1.06-2.394-2.145-3.94-3.229a29.53 29.53 0 0 0-.877-4.708c1.214-.249 2.377-.395 3.432-.395zM15 1c1.839 0 3.516 2.199 4.627 5.579-1.503.381-3.066.92-4.627 1.599a30.441 30.441 0 0 0-4.627-1.599C11.484 3.199 13.161 1 15 1zM1.433 8.5c.588-1.019 2.09-1.579 4.23-1.579 1.056 0 2.218.146 3.432.395a29.53 29.53 0 0 0-.877 4.708c-1.546 1.084-2.851 2.168-3.94 3.229C1.746 12.571.552 10.027 1.433 8.5zm2.845 8.247c1.089 1.06 2.394 2.145 3.94 3.229.184 1.7.481 3.284.877 4.708-1.213.249-2.375.395-3.431.395h-.001c-2.14 0-3.643-.561-4.23-1.579-.881-1.527.313-4.071 2.845-6.753zM15 18.5c1.378 0 2.5-1.121 2.5-2.5s-1.122-2.5-2.5-2.5-2.5 1.121-2.5 2.5 1.122 2.5 2.5 2.5zm0-4c.827 0 1.5.673 1.5 1.5s-.673 1.5-1.5 1.5-1.5-.673-1.5-1.5.673-1.5 1.5-1.5z"/></symbol><symbol id="briefcase" viewBox="0 0 38 32"><path d="M37.5 18a.5.5 0 0 0-.5.5v12a.5.5 0 0 1-.5.5h-35a.5.5 0 0 1-.5-.5v-12a.5.5 0 0 0-1 0v12c0 .827.673 1.5 1.5 1.5h35c.827 0 1.5-.673 1.5-1.5v-12a.5.5 0 0 0-.5-.5zm-12-13a.5.5 0 0 0 .5-.5v-3c0-.827-.673-1.5-1.5-1.5h-11c-.827 0-1.5.673-1.5 1.5v3a.5.5 0 0 0 1 0v-3a.5.5 0 0 1 .5-.5h11a.5.5 0 0 1 .5.5v3a.5.5 0 0 0 .5.5zm11 2h-35C.673 7 0 7.673 0 8.5v4.958c0 2.778 9.456 6.5 19.125 6.5 9.543 0 18.875-3.722 18.875-6.5V8.5c0-.827-.673-1.5-1.5-1.5zm.5 6.458c0 1.764-8.457 5.5-17.875 5.5-9.55 0-18.125-3.735-18.125-5.5V8.5a.5.5 0 0 1 .5-.5h35a.5.5 0 0 1 .5.5v4.958zM19.125 23c.943 0 1.923-.039 2.914-.116a.5.5 0 0 0 .459-.538.49.49 0 0 0-.538-.459c-2.014.157-3.909.15-5.919-.02a.5.5 0 0 0-.084.996c1.076.091 2.142.137 3.168.137z"/></symbol><symbol id="lightbulb" viewBox="0 0 22 32"><path d="M11 0C5.71 0 0 4.206 0 11c0 3.353 1.334 6.174 3.896 8.312a.478.478 0 0 0 .092.088c1.901 2.062 1.997 2.454 2.01 3.361.006.359.003.465 0 .523l-.004.209c-.015.452-.038 1.209.899 1.495l8.094 1.781a.5.5 0 1 0 .214-.977l-8.055-1.771c-.155-.047-.168-.051-.154-.498l.003-.191s.01-.078.002-.586c-.019-1.269-.295-1.882-2.309-4.059a.5.5 0 0 0-.138-.118C2.194 16.566 1 14.02 1 11 1 4.823 6.19 1 11 1c4.916 0 10 3.741 10 10 0 3.978-1.928 6.171-3.518 7.551a.485.485 0 0 0-.147.109c-2.037 2.204-2.313 2.817-2.332 4.086v.103l-.001.035c-.003.076-.014.118-.013.134L14.872 23l-4.195-.987a.5.5 0 1 0-.229.974l4.144.972c.055.02.553.182.973-.113.183-.129.396-.382.434-.866l.003-.047.002-.099-.001-.026.001-.046c.013-.902.107-1.294 2.005-3.356.009-.007.019-.014.027-.022C20.703 17.143 22 14.4 22 11c0-6.885-5.593-11-11-11zm4 29.5a.498.498 0 0 0 .487-.39.499.499 0 0 0-.377-.598l-8-1.814a.5.5 0 0 0-.221.975l8 1.814A.48.48 0 0 0 15 29.5zm-7.391.054a.5.5 0 1 0-.219.975l6.5 1.458a.5.5 0 1 0 .219-.975l-6.5-1.458z"/></symbol><symbol id="tools" viewBox="0 0 31 32"><path d="M.211 5.646c-.847.848-.666 2.042.008 2.715.027.026 2.734 2.612 6.541 6.419a.498.498 0 0 0 .708 0 .5.5 0 0 0 0-.707c-.574-.574-1.12-1.117-1.638-1.631l1.589-1.589a.5.5 0 0 0-.707-.707l-1.593 1.593a498.15 498.15 0 0 0-2.315-2.271l3.615-3.615a.5.5 0 0 0-.707-.707L2.086 8.772C1.35 8.059.926 7.654.919 7.647c-.211-.211-.488-.805 0-1.293l5-5c.193-.196.707-.585 1.271-.024.025.028 2.55 2.896 6.404 6.75a.5.5 0 0 0 .707-.707C10.471 3.544 7.965.698 7.919.646c-.932-.93-2.056-.651-2.707 0l-5.001 5zm21.208 18.5a.5.5 0 0 0-.707 0l-1.591 1.59a350.22 350.22 0 0 0-1.53-1.541.5.5 0 0 0-.707.707 295.59 295.59 0 0 1 6.328 6.509c.343.344.813.533 1.323.533.525 0 1.056-.205 1.385-.535l4.998-5.057c.629-.629.665-1.696.078-2.285l-6.706-6.705a.5.5 0 0 0-.707.707l6.706 6.705c.2.2.162.632-.079.873l-4.999 5.057c-.115.116-.376.24-.676.24-.172 0-.418-.042-.604-.229-.01-.011-.429-.458-1.156-1.219l3.644-3.644a.5.5 0 0 0-.707-.707l-3.629 3.629a328.619 328.619 0 0 0-2.26-2.326l1.596-1.596a.5.5 0 0 0 0-.706zM-.293 31.829a.5.5 0 0 0 .501.129l10-2.979a.49.49 0 0 0 .212-.127l17.09-17.205c.024-.024.036-.055.054-.082l3.656-3.656a1.552 1.552 0 0 0 0-2.203L25.985.472c-.588-.588-1.615-.588-2.203 0l-3.739 3.739c-.024.024-.037.055-.055.083L2.872 21.411a.495.495 0 0 0-.122.199l-3.16 9.715a.499.499 0 0 0 .117.504zM20.425 5.271l1.039 1.039L5.941 21.875l-1.727-.392L20.425 5.271zM6.565 22.666 22.172 7.018l2.436 2.436L8.86 25H6.565v-2.334zm19.884-11.37L10.205 27.65l-.577-2.002 15.687-15.487 1.134 1.135zM3.558 22.359l2.007.456V25.5a.5.5 0 0 0 .5.5h2.624l.634 2.2-8.488 2.529 2.723-8.37zM24.49 1.179a.57.57 0 0 1 .789 0l5.235 5.235a.554.554 0 0 1-.001.789l-3.371 3.372-6.023-6.023 3.371-3.373z"/></symbol><symbol id="instagram" viewBox="0 0 20 20"><path d="M17 1H3c-1.1 0-2 .9-2 2v14c0 1.101.9 2 2 2h14c1.1 0 2-.899 2-2V3c0-1.1-.9-2-2-2zM9.984 15.523a5.539 5.539 0 0 0 5.538-5.539c0-.338-.043-.664-.103-.984H17v7.216a.69.69 0 0 1-.693.69H3.693a.69.69 0 0 1-.693-.69V9h1.549c-.061.32-.104.646-.104.984a5.54 5.54 0 0 0 5.539 5.539zM6.523 9.984c0-1.912 1.55-3.461 3.462-3.461a3.461 3.461 0 1 1 0 6.923 3.461 3.461 0 0 1-3.462-3.462zM16.307 6h-1.615A.694.694 0 0 1 14 5.308V3.691c0-.382.31-.691.691-.691h1.615c.384 0 .694.309.694.691v1.616c0 .381-.31.693-.693.693z"/></symbol><symbol id="facebook" viewBox="0 0 32 32"><path d="M19 6h5V0h-5c-3.86 0-7 3.14-7 7v3H8v6h4v16h6V16h5l1-6h-6V7c0-.542.458-1 1-1z"/></symbol></defs></svg>