<svg aria-hidden="true" style="position: absolute; width: 0; height: 0; overflow: hidden;" version="1.1" xmlns="http://www.w3.org/2000/svg" xmlns:xlink="http://www.w3.org/1999/xlink">
<defs>
<symbol id="icon-derevo1" viewBox="0 0 64 32">
<path d="M42.752 42.752l-42.752 42.731v7.701c0 6.997 0.064 7.787 0.512 8.363 0.427 0.512 1.472 0.832 6.165 1.771 3.136 0.619 5.739 1.195 5.803 1.259 0.085 0.085-2.709 2.987-6.165 6.464l-6.315 6.315v7.701c0 6.997 0.064 7.765 0.512 8.341s3.755 1.28 29.611 6.464c16.021 3.179 29.376 5.739 29.717 5.653 0.32-0.085 19.776-19.307 43.2-42.752l42.603-42.603v-7.765c0-7.68 0-7.765-0.661-8.427-0.512-0.512-1.685-0.832-6.165-1.707-3.051-0.597-5.611-1.131-5.653-1.195-0.085-0.085 2.709-2.987 6.165-6.464l6.315-6.336v-7.616c0-4.459-0.107-7.829-0.277-8.128-0.149-0.277-0.832-0.704-1.472-0.96-1.365-0.491-56.661-11.563-57.728-11.563-0.512 0-10.901 10.219-43.413 42.752zM88.683 5.013c0.597 0.171-0.192 1.045-7.104 8.043-11.691 11.797-18.005 18.773-26.368 29.184-11.072 13.739-21.013 28.331-30.187 44.181-1.024 1.792-1.28 2.069-1.792 1.941-0.341-0.085-3.947-0.789-8.021-1.6-4.075-0.789-7.595-1.515-7.829-1.6-0.491-0.171 79.552-80.32 80.213-80.32 0.235 0 0.725 0.085 1.088 0.171zM97.728 6.827c1.536 0.32 2.837 0.619 2.901 0.704 0.064 0.064-2.475 2.837-5.632 6.165-6.677 6.997-9.728 10.389-12.8 14.165-14.613 18.112-25.003 38.763-30.549 60.885-0.661 2.581-1.259 4.757-1.301 4.8-0.107 0.107-21.312-3.947-21.568-4.117-0.171-0.107 0.747-1.728 3.776-6.805 11.029-18.432 23.787-35.669 38.656-52.203 2.88-3.221 23.403-24.171 23.659-24.171 0.043 0 1.323 0.256 2.859 0.576zM111.296 9.536c2.304 0.448 4.181 0.917 4.181 1.024s-3.413 3.413-7.573 7.36c-9.451 8.981-12.352 12.267-16.811 18.923-6.72 10.091-11.392 22.443-13.013 34.411-0.256 1.877-0.512 3.819-0.597 4.267-0.085 0.683-2.112 2.837-9.579 10.325l-9.493 9.493-1.728-0.341c-0.96-0.192-1.771-0.427-1.771-0.533 0-0.875 2.987-11.328 4.544-15.979 6.165-18.411 16.363-36.352 28.928-50.88 5.141-5.952 17.813-19.115 18.283-18.965 0.235 0.043 2.304 0.469 4.629 0.896zM129.856 13.227c4.373 0.875 8.171 1.643 8.384 1.728 0.256 0.085-9.301 9.835-27.456 27.989-15.339 15.339-27.904 27.755-27.968 27.627-0.149-0.405 1.045-5.909 1.963-9.131 3.477-12.181 10.432-24.405 18.944-33.131 3.669-3.755 17.408-16.64 17.771-16.64 0.213 0 3.968 0.704 8.363 1.557zM101.355 66.048l-39.765 39.765-0.171-6.955 79.531-79.509 0.171 6.955-39.765 39.744zM133.973 45.931c2.112 0.405 4.032 0.789 4.267 0.875 0.256 0.085-6.059 6.592-18.197 18.752-10.24 10.24-18.624 18.581-18.688 18.539-0.021-0.064 0.256-1.28 0.619-2.795 1.515-5.909 4.117-11.413 7.915-16.619 0.789-1.109 5.44-5.995 10.261-10.901 6.912-6.933 8.96-8.875 9.408-8.768 0.32 0.107 2.304 0.491 4.416 0.917zM101.355 97.899l-39.765 39.765-0.171-6.955 79.531-79.509 0.171 6.955-39.765 39.744zM98.411 77.483c-0.96 2.901-2.155 8.043-2.453 10.581l-0.171 1.728-37.376 37.376-2.709-0.491c-1.472-0.277-2.709-0.512-2.752-0.533-0.341-0.192 2.496-6.741 4.373-10.091 1.109-1.963 1.387-2.283 2.048-2.283 0.619 0 4.16-3.413 20.224-19.477 10.731-10.688 19.541-19.435 19.563-19.371 0.085 0.021-0.256 1.195-0.747 2.56zM31.509 94.613l25.365 5.099v4.501c0 4.203-0.021 4.501-0.512 4.416-0.277-0.064-12.053-2.389-26.176-5.205l-25.664-5.12v-9.024l0.789 0.149c0.469 0.064 12.245 2.389 26.197 5.184zM27.797 107.605c0.064 0.064-0.256 0.853-0.661 1.792-0.427 0.917-1.429 3.733-2.283 6.229-0.832 2.496-1.621 4.523-1.728 4.501s-3.605-0.683-7.765-1.515c-4.16-0.789-7.744-1.515-7.936-1.6-0.277-0.085 1.451-2.027 5.205-5.781l5.632-5.632 4.693 0.96c2.624 0.533 4.779 1.024 4.843 1.045zM43.52 110.677c5.547 1.109 10.155 2.048 10.219 2.112s-0.683 1.621-1.621 3.477c-0.939 1.856-2.112 4.501-2.645 5.909-0.512 1.387-1.024 2.645-1.109 2.795-0.149 0.171-20.139-3.648-20.395-3.904-0.107-0.085 1.707-5.717 2.56-7.851 1.451-3.755 1.877-4.544 2.389-4.544 0.277-0.021 5.056 0.896 10.603 2.005zM31.509 126.464l25.365 5.099v4.523c0 4.16-0.021 4.501-0.491 4.373-0.277-0.085-12.053-2.411-26.176-5.227l-25.664-5.099v-9.024l0.789 0.149c0.448 0.085 12.224 2.411 26.176 5.205z"></path>
</symbol>
<symbol id="icon-wood1" viewBox="0 0 64 32">
<path d="M37.672 0h-22.888c-0.895 0-1.62 0.725-1.62 1.62v105.986c0 0.895 0.725 1.62 1.62 1.62v0h22.888c0.895 0 1.62-0.725 1.62-1.62v0-105.986c0-0 0-0 0-0.001 0-0.894-0.725-1.62-1.62-1.62-0 0-0 0-0 0v0zM30.851 3.241c-0.268 0.577-0.638 0.902-0.888 0.902s-0.621-0.324-0.888-0.902h1.777zM18.589 105.986h-2.184v-68.57c6.272 24.649 2.976 60.961 2.184 68.57zM22.633 105.986h-0.785c0.436-4.226 1.451-15.367 1.565-28.42 0.193-22.176-2.165-39.128-7.009-50.403v-23.923h1.8c0.361 3.002 1.567 11.082 5.567 30.348 4.302 20.726 3.681 39.614 2.402 51.808-1.092 10.409-2.834 17.845-3.54 20.588zM25.979 105.986c0.822-3.308 2.378-10.395 3.408-20.163 1.311-12.444 1.952-31.722-2.443-52.893-3.856-18.579-5.087-26.602-5.477-29.69h4.207c0.53 2.418 2.224 4.143 4.289 4.143s3.759-1.724 4.288-4.143h1.801v3.977c-1.6 1.904-6.133 8.793-6.133 25.739s4.533 23.836 6.133 25.739v25.579c-6.383 6.127-7.586 17.483-7.812 21.711h-2.261zM36.052 13.821v38.267c-1.431-3.641-2.892-9.675-2.892-19.132-0-9.462 1.463-15.497 2.892-19.135zM36.052 105.986h-4.56c0.201-3.339 1.042-11.132 4.56-16.611v16.611zM65.929 0h-22.888c-0.895 0-1.62 0.725-1.62 1.62v0 105.986c0 0.895 0.725 1.62 1.62 1.62h22.888c0 0 0 0 0 0 0.895 0 1.62-0.725 1.62-1.62 0-0 0-0 0-0v0-105.986c0-0 0-0 0-0 0-0.895-0.725-1.62-1.62-1.62-0 0-0 0-0 0v0zM44.661 3.241h4.56c-0.201 3.339-1.042 11.132-4.56 16.611v-16.611zM44.661 57.138c1.431 3.641 2.892 9.675 2.892 19.132 0 9.462-1.463 15.496-2.892 19.135v-38.267zM49.862 105.986c0.268-0.577 0.638-0.902 0.888-0.902s0.621 0.324 0.888 0.902h-1.776zM55.039 105.986c-0.53-2.418-2.224-4.142-4.289-4.142s-3.759 1.724-4.288 4.142h-1.801v-3.977c1.6-1.904 6.133-8.793 6.133-25.739s-4.533-23.836-6.133-25.739v-25.579c6.383-6.127 7.586-17.483 7.812-21.711h2.261c-0.822 3.308-2.378 10.395-3.408 20.163-1.311 12.444-1.952 31.722 2.442 52.893 3.856 18.579 5.088 26.602 5.477 29.69h-4.207zM64.308 105.986h-1.8c-0.361-3.002-1.567-11.082-5.566-30.348-4.302-20.726-3.681-39.614-2.402-51.808 1.092-10.409 2.834-17.845 3.54-20.588h0.784c-0.436 4.226-1.451 15.367-1.565 28.42-0.194 22.176 2.165 39.128 7.009 50.403v23.923zM64.308 71.811c-6.272-24.648-2.976-60.961-2.184-68.57h2.184v68.57zM94.443 0h-22.888c-0 0-0 0-0 0-0.895 0-1.62 0.725-1.62 1.62 0 0 0 0 0 0v0 105.986c0 0.895 0.725 1.62 1.62 1.62h22.888c0 0 0 0 0 0 0.895 0 1.62-0.725 1.62-1.62 0-0 0-0 0-0v0-105.986c0-0 0-0 0-0 0-0.895-0.725-1.62-1.62-1.62-0 0-0 0-0 0v0zM87.622 3.241c-0.268 0.577-0.638 0.902-0.888 0.902s-0.621-0.324-0.888-0.902h1.777zM75.359 105.986h-2.184v-68.57c6.272 24.649 2.977 60.961 2.184 68.57zM79.403 105.986h-0.784c0.436-4.226 1.451-15.367 1.565-28.42 0.194-22.176-2.166-39.128-7.009-50.403v-23.923h1.8c0.361 3.002 1.567 11.082 5.567 30.348 4.302 20.726 3.681 39.614 2.402 51.808-1.092 10.409-2.834 17.845-3.54 20.588zM82.749 105.986c0.822-3.308 2.378-10.395 3.408-20.163 1.311-12.444 1.952-31.722-2.442-52.893-3.856-18.579-5.088-26.601-5.477-29.69h4.207c0.53 2.418 2.224 4.143 4.289 4.143s3.759-1.724 4.288-4.143h1.801v3.977c-1.6 1.904-6.133 8.793-6.133 25.739s4.533 23.836 6.133 25.739v25.579c-6.383 6.127-7.586 17.483-7.812 21.711h-2.261zM92.822 13.822v38.267c-1.431-3.641-2.892-9.675-2.892-19.132 0-9.462 1.463-15.496 2.892-19.135zM92.823 105.986h-4.56c0.201-3.339 1.042-11.132 4.56-16.611v16.611z"></path>
</symbol>
<symbol id="icon-tools" viewBox="0 0 31 32">
<path d="M0.211 5.646c-0.847 0.848-0.666 2.042 0.008 2.715 0.027 0.026 2.734 2.612 6.541 6.419 0.098 0.098 0.226 0.146 0.354 0.146s0.256-0.049 0.354-0.146c0.195-0.195 0.195-0.512 0-0.707-0.574-0.574-1.12-1.117-1.638-1.631l1.589-1.589c0.195-0.195 0.195-0.512 0-0.707s-0.512-0.195-0.707 0l-1.593 1.593c-0.891-0.88-1.676-1.648-2.315-2.271l3.615-3.615c0.195-0.195 0.195-0.512 0-0.707s-0.512-0.195-0.707 0l-3.626 3.626c-0.736-0.713-1.16-1.118-1.167-1.125-0.211-0.211-0.488-0.805 0-1.293l5-5c0.193-0.196 0.707-0.585 1.271-0.024 0.025 0.028 2.55 2.896 6.404 6.75 0.195 0.195 0.512 0.195 0.707 0s0.195-0.512 0-0.707c-3.83-3.829-6.336-6.675-6.382-6.727-0.932-0.93-2.056-0.651-2.707 0l-5.001 5zM21.419 24.146c-0.195-0.195-0.512-0.195-0.707 0l-1.591 1.59c-0.485-0.491-0.994-1.005-1.53-1.541-0.195-0.195-0.512-0.195-0.707 0s-0.195 0.512 0 0.707c3.704 3.703 6.291 6.469 6.328 6.509 0.343 0.344 0.813 0.533 1.323 0.533v0c0.525 0 1.056-0.205 1.385-0.535l4.998-5.057c0.629-0.629 0.665-1.696 0.078-2.285l-6.706-6.705c-0.195-0.195-0.512-0.195-0.707 0s-0.195 0.512 0 0.707l6.706 6.705c0.2 0.2 0.162 0.632-0.079 0.873l-4.999 5.057c-0.115 0.116-0.376 0.24-0.676 0.24 0 0 0 0 0 0-0.172 0-0.418-0.042-0.604-0.229-0.010-0.011-0.429-0.458-1.156-1.219l3.644-3.644c0.195-0.195 0.195-0.512 0-0.707s-0.512-0.195-0.707 0l-3.629 3.629c-0.624-0.649-1.389-1.438-2.26-2.326l1.596-1.596c0.195-0.194 0.195-0.51 0-0.706zM-0.293 31.829c0.096 0.098 0.225 0.15 0.358 0.15 0.048 0 0.096-0.007 0.143-0.021l10-2.979c0.081-0.024 0.153-0.067 0.212-0.127l17.090-17.205c0.024-0.024 0.036-0.055 0.054-0.082l3.656-3.656c0.294-0.295 0.457-0.686 0.457-1.103s-0.163-0.807-0.457-1.1l-5.235-5.234c-0.588-0.588-1.615-0.588-2.203 0l-3.739 3.739c-0.024 0.024-0.037 0.055-0.055 0.083l-17.116 17.117c-0.056 0.056-0.098 0.124-0.122 0.199l-3.16 9.715c-0.058 0.177-0.013 0.37 0.117 0.504zM20.425 5.271l1.039 1.039-15.523 15.565-1.727-0.392 16.211-16.212zM6.565 22.666l15.607-15.648 2.436 2.436-15.748 15.546h-2.295v-2.334zM26.449 11.296l-16.244 16.354-0.577-2.002 15.687-15.487 1.134 1.135zM3.558 22.359l2.007 0.456v2.685c0 0.276 0.224 0.5 0.5 0.5h2.624l0.634 2.2-8.488 2.529 2.723-8.37zM24.49 1.179c0.211-0.211 0.578-0.211 0.789 0l5.235 5.235c0.105 0.105 0.163 0.245 0.163 0.394 0 0.148-0.058 0.289-0.164 0.395l-3.371 3.372-6.023-6.023 3.371-3.373z"></path>
</symbol>
</defs>
</svg>
