<!-- Generated by IcoMoon.io -->
<svg version="1.1" xmlns="http://www.w3.org/2000/svg" width="64" height="32" viewBox="0 0 64 32">
<title>wood1</title>
<path d="M37.672 0h-22.888c-0.895 0-1.62 0.725-1.62 1.62v105.986c0 0.895 0.725 1.62 1.62 1.62v0h22.888c0.895 0 1.62-0.725 1.62-1.62v0-105.986c0-0 0-0 0-0.001 0-0.894-0.725-1.62-1.62-1.62-0 0-0 0-0 0v0zM30.851 3.241c-0.268 0.577-0.638 0.902-0.888 0.902s-0.621-0.324-0.888-0.902h1.777zM18.589 105.986h-2.184v-68.57c6.272 24.649 2.976 60.961 2.184 68.57zM22.633 105.986h-0.785c0.436-4.226 1.451-15.367 1.565-28.42 0.193-22.176-2.165-39.128-7.009-50.403v-23.923h1.8c0.361 3.002 1.567 11.082 5.567 30.348 4.302 20.726 3.681 39.614 2.402 51.808-1.092 10.409-2.834 17.845-3.54 20.588zM25.979 105.986c0.822-3.308 2.378-10.395 3.408-20.163 1.311-12.444 1.952-31.722-2.443-52.893-3.856-18.579-5.087-26.602-5.477-29.69h4.207c0.53 2.418 2.224 4.143 4.289 4.143s3.759-1.724 4.288-4.143h1.801v3.977c-1.6 1.904-6.133 8.793-6.133 25.739s4.533 23.836 6.133 25.739v25.579c-6.383 6.127-7.586 17.483-7.812 21.711h-2.261zM36.052 13.821v38.267c-1.431-3.641-2.892-9.675-2.892-19.132-0-9.462 1.463-15.497 2.892-19.135zM36.052 105.986h-4.56c0.201-3.339 1.042-11.132 4.56-16.611v16.611zM65.929 0h-22.888c-0.895 0-1.62 0.725-1.62 1.62v0 105.986c0 0.895 0.725 1.62 1.62 1.62h22.888c0 0 0 0 0 0 0.895 0 1.62-0.725 1.62-1.62 0-0 0-0 0-0v0-105.986c0-0 0-0 0-0 0-0.895-0.725-1.62-1.62-1.62-0 0-0 0-0 0v0zM44.661 3.241h4.56c-0.201 3.339-1.042 11.132-4.56 16.611v-16.611zM44.661 57.138c1.431 3.641 2.892 9.675 2.892 19.132 0 9.462-1.463 15.496-2.892 19.135v-38.267zM49.862 105.986c0.268-0.577 0.638-0.902 0.888-0.902s0.621 0.324 0.888 0.902h-1.776zM55.039 105.986c-0.53-2.418-2.224-4.142-4.289-4.142s-3.759 1.724-4.288 4.142h-1.801v-3.977c1.6-1.904 6.133-8.793 6.133-25.739s-4.533-23.836-6.133-25.739v-25.579c6.383-6.127 7.586-17.483 7.812-21.711h2.261c-0.822 3.308-2.378 10.395-3.408 20.163-1.311 12.444-1.952 31.722 2.442 52.893 3.856 18.579 5.088 26.602 5.477 29.69h-4.207zM64.308 105.986h-1.8c-0.361-3.002-1.567-11.082-5.566-30.348-4.302-20.726-3.681-39.614-2.402-51.808 1.092-10.409 2.834-17.845 3.54-20.588h0.784c-0.436 4.226-1.451 15.367-1.565 28.42-0.194 22.176 2.165 39.128 7.009 50.403v23.923zM64.308 71.811c-6.272-24.648-2.976-60.961-2.184-68.57h2.184v68.57zM94.443 0h-22.888c-0 0-0 0-0 0-0.895 0-1.62 0.725-1.62 1.62 0 0 0 0 0 0v0 105.986c0 0.895 0.725 1.62 1.62 1.62h22.888c0 0 0 0 0 0 0.895 0 1.62-0.725 1.62-1.62 0-0 0-0 0-0v0-105.986c0-0 0-0 0-0 0-0.895-0.725-1.62-1.62-1.62-0 0-0 0-0 0v0zM87.622 3.241c-0.268 0.577-0.638 0.902-0.888 0.902s-0.621-0.324-0.888-0.902h1.777zM75.359 105.986h-2.184v-68.57c6.272 24.649 2.977 60.961 2.184 68.57zM79.403 105.986h-0.784c0.436-4.226 1.451-15.367 1.565-28.42 0.194-22.176-2.166-39.128-7.009-50.403v-23.923h1.8c0.361 3.002 1.567 11.082 5.567 30.348 4.302 20.726 3.681 39.614 2.402 51.808-1.092 10.409-2.834 17.845-3.54 20.588zM82.749 105.986c0.822-3.308 2.378-10.395 3.408-20.163 1.311-12.444 1.952-31.722-2.442-52.893-3.856-18.579-5.088-26.601-5.477-29.69h4.207c0.53 2.418 2.224 4.143 4.289 4.143s3.759-1.724 4.288-4.143h1.801v3.977c-1.6 1.904-6.133 8.793-6.133 25.739s4.533 23.836 6.133 25.739v25.579c-6.383 6.127-7.586 17.483-7.812 21.711h-2.261zM92.822 13.822v38.267c-1.431-3.641-2.892-9.675-2.892-19.132 0-9.462 1.463-15.496 2.892-19.135zM92.823 105.986h-4.56c0.201-3.339 1.042-11.132 4.56-16.611v16.611z"></path>
</svg>
