<svg version="1.0" xmlns="http://www.w3.org/2000/svg" width="682.667" height="682.667" viewBox="0 0 512 512"><path d="M150.3 150.3 0 300.5v27.1C0 352.2.2 355 1.8 357c1.5 1.8 5.2 2.9 21.7 6.2 11 2.2 20.2 4.2 20.4 4.4.3.3-9.5 10.5-21.7 22.7L0 412.6v27.1C0 464.3.2 467 1.8 469s13.2 4.5 104.1 22.7c56.3 11.2 103.3 20.2 104.5 19.9 1.1-.3 69.5-67.9 151.9-150.3L512 211.5v-27.3c0-27 0-27.3-2.3-29.6-1.8-1.8-5.9-2.9-21.7-6-10.7-2.1-19.7-4-19.9-4.2-.3-.3 9.5-10.5 21.7-22.7L512 99.4V72.6c0-15.7-.4-27.5-1-28.6-.5-1-2.9-2.5-5.2-3.4C501.1 38.9 306.7 0 302.9 0c-1.8 0-38.3 35.9-152.6 150.3zM311.8 17.6c2.1.6-.7 3.7-25 28.3-41.1 41.5-63.3 66-92.7 102.6-38.9 48.3-73.9 99.6-106.1 155.3-3.6 6.3-4.5 7.3-6.3 6.8-1.2-.3-13.9-2.8-28.2-5.6-14.3-2.8-26.7-5.3-27.5-5.6C24.3 298.8 305.7 17 308 17c.8 0 2.5.3 3.8.6zm31.8 6.4c5.4 1.1 10 2.2 10.2 2.5.2.2-8.7 10-19.8 21.7-23.5 24.6-34.2 36.5-45 49.8-51.4 63.6-87.9 136.2-107.4 214-2.3 9.1-4.4 16.7-4.6 16.9-.4.4-74.9-13.9-75.8-14.5-.6-.4 2.6-6.1 13.3-23.9 38.8-64.8 83.6-125.4 135.9-183.5 10.1-11.3 82.3-85 83.2-85 .1 0 4.6.9 10 2zm47.7 9.5c8.1 1.6 14.7 3.2 14.7 3.6 0 .4-12 12-26.6 25.9-33.2 31.6-43.4 43.1-59.1 66.5-23.7 35.5-40.1 78.9-45.8 121-.9 6.6-1.8 13.4-2.1 15-.3 2.4-7.4 10-33.7 36.3l-33.4 33.4-6.1-1.2c-3.4-.7-6.2-1.5-6.2-1.9 0-3.1 10.5-39.8 16-56.2 21.7-64.7 57.5-127.8 101.7-178.9 18.1-20.9 62.6-67.2 64.3-66.7.8.2 8.1 1.7 16.3 3.2zm65.2 13c15.4 3.1 28.7 5.8 29.5 6.1.9.3-32.7 34.6-96.5 98.4-53.9 53.9-98.1 97.6-98.3 97.1-.5-1.4 3.7-20.8 6.9-32.1 12.2-42.8 36.7-85.8 66.6-116.5C377.6 86.3 425.9 41 427.2 41c.7 0 13.9 2.5 29.3 5.5zM356.3 232.2 216.5 372l-.3-12.2-.3-12.2 139.8-139.8L495.5 68l.3 12.2.3 12.2-139.8 139.8zM471 161.5c7.4 1.4 14.2 2.8 15 3.1.9.3-21.3 23.2-64 65.9-36 36-65.5 65.3-65.7 65.2-.1-.2.9-4.5 2.2-9.8 5.3-20.8 14.5-40.1 27.8-58.4 2.8-3.9 19.1-21.1 36.1-38.3 24.3-24.4 31.5-31.2 33.1-30.8 1.1.2 8.1 1.6 15.5 3.1zM356.3 344.2 216.5 484l-.3-12.2-.3-12.2 139.8-139.8L495.5 180l.3 12.2.3 12.2-139.8 139.8zM346 272.4c-3.4 10.2-7.6 28.3-8.6 37.2l-.6 6.1-65.7 65.7-65.7 65.7-9.5-1.7c-5.2-1-9.5-1.8-9.7-1.9-1.2-.7 8.8-23.7 15.4-35.5 3.9-6.9 4.9-8 7.2-8 2.2 0 14.6-12 71.1-68.5 37.7-37.6 68.7-68.3 68.8-68.1.2.1-1 4.2-2.7 9zm-235.2 60.2 89.2 17.9v15.8c0 14.8-.1 15.8-1.8 15.5-1-.2-42.4-8.4-92-18.3l-90.2-18V313.8l2.8.5c1.5.3 42.9 8.5 92 18.3zm-13.1 45.7c.2.2-.9 3-2.3 6.3-1.5 3.2-5 13.1-8 21.9-2.9 8.8-5.7 15.9-6.1 15.8-.4-.1-12.7-2.4-27.3-5.3-14.6-2.8-27.2-5.3-27.9-5.6-1-.3 5.1-7.1 18.3-20.3l19.8-19.8 16.5 3.4c9.2 1.8 16.8 3.5 17 3.6zm55.3 10.8c19.5 3.9 35.7 7.2 35.9 7.4.2.2-2.4 5.7-5.7 12.2-3.3 6.5-7.4 15.8-9.3 20.8-1.8 4.9-3.6 9.3-3.9 9.8-.5.6-70.8-12.8-71.7-13.7-.4-.3 6-20.1 9-27.6 5.1-13.2 6.6-16 8.4-16 1 0 17.8 3.2 37.3 7.1zm-42.2 55.5 89.2 17.9v15.9c0 14.6-.1 15.8-1.7 15.4-1-.3-42.4-8.5-92-18.4L16 457.5V425.8l2.8.5c1.5.3 42.9 8.5 92 18.3z"/></svg>