<svg width="800" height="600" xmlns="http://www.w3.org/2000/svg">

 <g>
  <title>Layer 1</title>
  <g>
   <path fill="#d10220" d="m418.5,302a0.5,0.5 0 0 0 -0.5,0.5l0,12a0.5,0.5 0 0 1 -0.5,0.5l-35,0a0.5,0.5 0 0 1 -0.5,-0.5l0,-12a0.5,0.5 0 0 0 -1,0l0,12c0,0.827 0.673,1.5 1.5,1.5l35,0c0.827,0 1.5,-0.673 1.5,-1.5l0,-12a0.5,0.5 0 0 0 -0.5,-0.5zm-12,-13a0.5,0.5 0 0 0 0.5,-0.5l0,-3c0,-0.827 -0.673,-1.5 -1.5,-1.5l-11,0c-0.827,0 -1.5,0.673 -1.5,1.5l0,3a0.5,0.5 0 0 0 1,0l0,-3a0.5,0.5 0 0 1 0.5,-0.5l11,0a0.5,0.5 0 0 1 0.5,0.5l0,3a0.5,0.5 0 0 0 0.5,0.5zm11,2l-35,0c-0.827,0 -1.5,0.673 -1.5,1.5l0,4.958c0,2.778 9.456,6.5 19.125,6.5c9.543,0 18.875,-3.722 18.875,-6.5l0,-4.958c0,-0.827 -0.673,-1.5 -1.5,-1.5zm0.5,6.458c0,1.764 -8.457,5.5 -17.875,5.5c-9.55,0 -18.125,-3.735 -18.125,-5.5l0,-4.958a0.5,0.5 0 0 1 0.5,-0.5l35,0a0.5,0.5 0 0 1 0.5,0.5l0,4.958zm-17.875,9.542c0.943,0 1.923,-0.039 2.914,-0.116a0.5,0.5 0 0 0 0.459,-0.538a0.49,0.49 0 0 0 -0.538,-0.459c-2.014,0.157 -3.909,0.15 -5.919,-0.02a0.5,0.5 0 0 0 -0.084,0.996c1.076,0.091 2.142,0.137 3.168,0.137z"/>
  </g>
 </g>
</svg>