<?xml version="1.0" encoding="UTF-8" standalone="no" ?>
<!DOCTYPE svg PUBLIC "-//W3C//DTD SVG 1.1//EN" "http://www.w3.org/Graphics/SVG/1.1/DTD/svg11.dtd">
<svg xmlns="http://www.w3.org/2000/svg" xmlns:xlink="http://www.w3.org/1999/xlink" version="1.1" width="1080" height="1080" viewBox="0 0 1080 1080" xml:space="preserve">
<desc>Created with Fabric.js 5.2.4</desc>
<defs>
</defs>
<g transform="matrix(1 0 0 1 540 540)" id="1bf11173-cca8-4e00-a706-a998f3d3e871"  >
<rect style="stroke: none; stroke-width: 1; stroke-dasharray: none; stroke-linecap: butt; stroke-dashoffset: 0; stroke-linejoin: miter; stroke-miterlimit: 4; fill: rgb(255,255,255); fill-rule: nonzero; opacity: 1; visibility: hidden;" vector-effect="non-scaling-stroke"  x="-540" y="-540" rx="0" ry="0" width="1080" height="1080" />
</g>
<g transform="matrix(1 0 0 1 540 540)" id="7ec8d624-878b-4cc7-bcbb-b34d6c524198"  >
</g>
<g transform="matrix(NaN NaN NaN NaN 0 0)"  >
<g style=""   >
</g>
</g>
<g transform="matrix(NaN NaN NaN NaN 0 0)"  >
<g style=""   >
</g>
</g>
<g transform="matrix(NaN NaN NaN NaN 0 0)"  >
<g style=""   >
</g>
</g>
<g transform="matrix(NaN NaN NaN NaN 0 0)"  >
<g style=""   >
</g>
</g>
<g transform="matrix(1 0 0 1 540 540)" id="bfc01986-ab0b-42c3-85a9-9317f2bc48aa"  >
<path style="stroke: rgb(209,2,32); stroke-width: 0; stroke-dasharray: none; stroke-linecap: butt; stroke-dashoffset: 0; stroke-linejoin: miter; stroke-miterlimit: 4; fill: rgb(209,2,32); fill-rule: nonzero; opacity: 1;" vector-effect="non-scaling-stroke"  transform=" translate(-19.5, -16)" d="M 1.5 25 L 19 25 L 19 26.5 C 19 26.7761423749154 19.2238576250846 27 19.5 27 C 19.776142374915395 27 20 26.7761423749154 20 26.5 L 20 25 L 37.5 25 C 38.327 25 39 24.326999999999998 39 23.5 L 39 1.5 C 39 0.673 38.327 0 37.5 0 L 1.5 0 C 0.673 0 0 0.673 0 1.5 L 0 23.5 C 0 24.326999999999998 0.673 25 1.5 25 z M 1 1.5 C 1 1.2238576250846034 1.2238576250846034 1 1.5 1 L 37.5 1 C 37.776142374915395 1 38 1.2238576250846032 38 1.5 L 38 23.5 C 38 23.7761423749154 37.776142374915395 24 37.5 24 L 1.5 24 C 1.2238576250846034 24 1 23.7761423749154 1 23.5 L 1 1.5 z M 3.5 22 L 35.5 22 C 35.776142374915395 22 36 21.7761423749154 36 21.5 L 36 3.5 C 36 3.2238576250846034 35.776142374915395 3 35.5 3 L 3.5 3 C 3.2238576250846034 3 3 3.2238576250846034 3 3.5 L 3 21.5 C 3 21.7761423749154 3.2238576250846034 22 3.5 22 z M 4 4 L 35 4 L 35 21 L 4 21 L 4 4 z M 14 28 C 12.86 28 12 28.86 12 30 L 12 31.5 C 12 31.7761423749154 12.223857625084603 32 12.5 32 L 26.5 32 C 26.7761423749154 32 27 31.7761423749154 27 31.5 L 27 30.075 C 27 28.912 26.122 28 25 28 L 14 28 z M 26 30.075 L 26 31 L 13 31 L 13 30 C 13 29.411 13.411 29 14 29 L 25 29 C 25.57 29 26 29.462 26 30.075 z" stroke-linecap="round" />
</g>
<g transform="matrix(NaN NaN NaN NaN 0 0)"  >
<g style=""   >
</g>
</g>
<g transform="matrix(NaN NaN NaN NaN 0 0)"  >
<g style=""   >
</g>
</g>
<g transform="matrix(NaN NaN NaN NaN 0 0)"  >
<g style=""   >
</g>
</g>
<g transform="matrix(NaN NaN NaN NaN 0 0)"  >
<g style=""   >
</g>
</g>
<g transform="matrix(NaN NaN NaN NaN 0 0)"  >
<g style=""   >
</g>
</g>
<g transform="matrix(NaN NaN NaN NaN 0 0)"  >
<g style=""   >
</g>
</g>
</svg>