<?xml version="1.0" encoding="UTF-8" standalone="no" ?>
<!DOCTYPE svg PUBLIC "-//W3C//DTD SVG 1.1//EN" "http://www.w3.org/Graphics/SVG/1.1/DTD/svg11.dtd">
<svg xmlns="http://www.w3.org/2000/svg" xmlns:xlink="http://www.w3.org/1999/xlink" version="1.1" width="1080" height="1080" viewBox="0 0 1080 1080" xml:space="preserve">
<desc>Created with Fabric.js 5.2.4</desc>
<defs>
</defs>
<g transform="matrix(1 0 0 1 540 540)" id="7ec8d624-878b-4cc7-bcbb-b34d6c524198"  >
</g>
<g transform="matrix(1 0 0 1 540 540)" id="1bf11173-cca8-4e00-a706-a998f3d3e871"  >
<rect style="stroke: none; stroke-width: 1; stroke-dasharray: none; stroke-linecap: butt; stroke-dashoffset: 0; stroke-linejoin: miter; stroke-miterlimit: 4; fill: rgb(255,255,255); fill-rule: nonzero; opacity: 1; visibility: hidden;" vector-effect="non-scaling-stroke"  x="-540" y="-540" rx="0" ry="0" width="1080" height="1080" />
</g>
<g transform="matrix(0 0 0 0 0 0)"  >
<g style=""   >
</g>
</g>
<g transform="matrix(0 0 0 0 0 0)"  >
<g style=""   >
</g>
</g>
<g transform="matrix(0 0 0 0 0 0)"  >
<g style=""   >
</g>
</g>
<g transform="matrix(0 0 0 0 0 0)"  >
<g style=""   >
</g>
</g>
<g transform="matrix(0 0 0 0 0 0)"  >
<g style=""   >
</g>
</g>
<g transform="matrix(0 0 0 0 0 0)"  >
<g style=""   >
</g>
</g>
<g transform="matrix(0 0 0 0 0 0)"  >
<g style=""   >
</g>
</g>
<g transform="matrix(0 0 0 0 0 0)"  >
<g style=""   >
</g>
</g>
<g transform="matrix(1 0 0 1 540 540)" id="ec850717-f0f8-44c9-95ec-69bb2bbc60be"  >
<path style="stroke: rgb(209,2,32); stroke-width: 0; stroke-dasharray: none; stroke-linecap: butt; stroke-dashoffset: 0; stroke-linejoin: miter; stroke-miterlimit: 4; fill: rgb(209,2,32); fill-rule: nonzero; opacity: 1;" vector-effect="non-scaling-stroke"  transform=" translate(-21, -16)" d="M 33.958 12.982 C 33.528 6.372 28.931 0 20.5 0 C 19.471 0 18.456 0.1 17.482 0.297 C 17.211104330207995 0.3519523326081645 17.036047667391834 0.6161043302079969 17.091 0.8870000000000011 C 17.145952332608164 1.157895669792005 17.410104330207997 1.3329523326081645 17.681 1.278 C 18.609008395283176 1.0913143345579095 19.55340197944828 0.9981815156867143 20.499999999999993 0.9999999999999996 C 29.088 1 33 7.739 33 14 L 33 15.5 C 33 15.776142374915397 33.223857625084605 16 33.5 16 C 33.776142374915395 16 34 15.776142374915397 34 15.5 L 34 14 L 33.999 13.984 C 37.062 14.248 41 16.916 41 22.5 C 41 27.267 37.486 31 33 31 L 9 31 C 5.024 31 1 28.08 1 22.5 C 1 18.406 3.504 14 9 14 L 10.5 14 C 10.776142374915397 14 11 13.776142374915397 11 13.5 C 11 13.223857625084603 10.776142374915397 13 10.5 13 L 9 13 L 9 11 C 9 7.273 11.299 4.958 15 4.958 C 18.364 4.958 21 7.612 21 11 L 21 23.993000000000002 L 16.84 20.133000000000003 C 16.63786378156193 19.945223185057532 16.32177681494247 19.956863781561932 16.134 20.159000000000002 C 15.94622318505753 20.361136218438073 15.95786378156193 20.67722318505753 16.16 20.865000000000002 L 20.676000000000002 25.054000000000002 C 20.975 25.352 21.239 25.499000000000002 21.503 25.499000000000002 C 21.764 25.499000000000002 22.023 25.354000000000003 22.311 25.066000000000003 L 26.84 20.864000000000004 C 26.93744454214241 20.77404413060076 26.99498419549251 20.648936641893343 26.999864830865814 20.51640861983359 C 27.004745466239118 20.38388059777384 26.95656391234717 20.254879693502264 26.866 20.158000000000005 C 26.776185706947196 20.060312313554075 26.6510349435262 20.002599032253173 26.51842408073896 19.997715346088203 C 26.385813217951725 19.992831659923233 26.256756385049382 20.041183188385034 26.16 20.132000000000005 L 22 23.993 L 22 11 C 22 7.051 18.925 3.958 15 3.958 C 10.748000000000001 3.958 8 6.7219999999999995 8 11 L 8 13.051 C 2.745 13.559000000000001 0 18.054000000000002 0 22.5 C 0 27.105 3.154 32 9 32 L 33 32 C 38.047 32 42 27.826999999999998 42 22.5 C 42 16.195999999999998 37.443 13.222 33.958 12.982 z" stroke-linecap="round" />
</g>
<g transform="matrix(NaN NaN NaN NaN 0 0)"  >
<g style=""   >
</g>
</g>
<g transform="matrix(NaN NaN NaN NaN 0 0)"  >
<g style=""   >
</g>
</g>
<g transform="matrix(NaN NaN NaN NaN 0 0)"  >
<g style=""   >
</g>
</g>
<g transform="matrix(NaN NaN NaN NaN 0 0)"  >
<g style=""   >
</g>
</g>
</svg>