<?xml version="1.0" encoding="UTF-8" standalone="no" ?>
<!DOCTYPE svg PUBLIC "-//W3C//DTD SVG 1.1//EN" "http://www.w3.org/Graphics/SVG/1.1/DTD/svg11.dtd">
<svg xmlns="http://www.w3.org/2000/svg" xmlns:xlink="http://www.w3.org/1999/xlink" version="1.1" width="1080" height="1080" viewBox="0 0 1080 1080" xml:space="preserve">
<desc>Created with Fabric.js 5.2.4</desc>
<defs>
</defs>
<rect x="0" y="0" width="100%" height="100%" fill="transparent"></rect>
<g transform="matrix(1 0 0 1 540 540)" id="7ec8d624-878b-4cc7-bcbb-b34d6c524198"  >
</g>
<g transform="matrix(1 0 0 1 540 540)" id="1bf11173-cca8-4e00-a706-a998f3d3e871"  >
<rect style="stroke: none; stroke-width: 1; stroke-dasharray: none; stroke-linecap: butt; stroke-dashoffset: 0; stroke-linejoin: miter; stroke-miterlimit: 4; fill: rgb(255,255,255); fill-rule: nonzero; opacity: 1; visibility: hidden;" vector-effect="non-scaling-stroke"  x="-540" y="-540" rx="0" ry="0" width="1080" height="1080" />
</g>
<g transform="matrix(0 0 0 0 0 0)"  >
<g style=""   >
</g>
</g>
<g transform="matrix(0 0 0 0 0 0)"  >
<g style=""   >
</g>
</g>
<g transform="matrix(0 0 0 0 0 0)"  >
<g style=""   >
</g>
</g>
<g transform="matrix(0 0 0 0 0 0)"  >
<g style=""   >
</g>
</g>
<g transform="matrix(0 0 0 0 0 0)"  >
<g style=""   >
</g>
</g>
<g transform="matrix(0 0 0 0 0 0)"  >
<g style=""   >
</g>
</g>
<g transform="matrix(0 0 0 0 0 0)"  >
<g style=""   >
</g>
</g>
<g transform="matrix(0 0 0 0 0 0)"  >
<g style=""   >
</g>
</g>
<g transform="matrix(NaN NaN NaN NaN 0 0)"  >
<g style=""   >
</g>
</g>
<g transform="matrix(NaN NaN NaN NaN 0 0)"  >
<g style=""   >
</g>
</g>
<g transform="matrix(NaN NaN NaN NaN 0 0)"  >
<g style=""   >
</g>
</g>
<g transform="matrix(NaN NaN NaN NaN 0 0)"  >
<g style=""   >
</g>
</g>
<g transform="matrix(1 0 0 1 540 540)" id="3ac62e44-6280-4b28-9c0e-3f227c285150"  >
<path style="stroke: rgb(209,2,32); stroke-width: 0; stroke-dasharray: none; stroke-linecap: butt; stroke-dashoffset: 0; stroke-linejoin: miter; stroke-miterlimit: 4; fill: rgb(209,2,32); fill-rule: nonzero; opacity: 1;" vector-effect="non-scaling-stroke"  transform=" translate(-15, -16)" d="M 0.567 24 C 1.3519999999999999 25.36 3.115 26.079 5.664000000000001 26.079 L 5.665000000000001 26.079 C 6.811000000000001 26.079 8.072000000000001 25.918 9.387 25.641000000000002 C 10.653 29.52 12.674 32 15 32 C 17.326 32 19.347 29.52 20.613 25.641 C 21.929 25.916999999999998 23.189999999999998 26.078999999999997 24.336 26.078999999999997 C 26.884 26.078999999999997 28.647 25.359999999999996 29.432 23.999999999999996 C 30.448 22.238999999999997 29.549 19.279999999999998 26.465999999999998 15.999999999999996 C 29.549 12.719999999999997 30.447999999999997 9.760999999999996 29.432 7.9999999999999964 C 28.647 6.639999999999996 26.884 5.920999999999996 24.334999999999997 5.920999999999996 C 23.188999999999997 5.920999999999996 21.926999999999996 6.081999999999995 20.612 6.3589999999999955 C 19.347 2.48 17.326 0 15 0 C 12.674 0 10.652999999999999 2.48 9.387 6.359 C 8.071 6.082 6.809000000000001 5.921 5.664000000000001 5.921 C 3.115 5.921 1.352 6.64 0.567 8 C -0.449 9.761 0.45 12.72 3.533 16 C 0.45 19.28 -0.45 22.239 0.567 24 z M 15 31 C 13.161 31 11.484 28.801000000000002 10.373000000000001 25.421 C 11.955760021231226 25.013083971532197 13.503095682307514 24.47835526566209 15.000000000000014 23.821999999999992 C 16.4969043176925 24.478355265662096 18.044239978768786 25.013083971532204 19.62700000000001 25.421000000000006 C 18.516 28.801 16.839 31 15 31 z M 9 16 C 9 14.836 9.062 13.703 9.168 12.607 C 10.086219244229135 11.966433354754752 11.03105969020266 11.36489828268898 11.999999999999947 10.80400000000003 C 12.974107713035155 10.24384025024493 13.975331473229465 9.732214908785636 15 9.270999999999999 C 16.009 9.726 17.016 10.235000000000001 18 10.804 C 18.969238600389797 11.364407042531557 19.914099623365253 11.965955214997908 20.83199999999999 12.606999999999976 C 20.938 13.703 21 14.836 21 16 C 21 17.164 20.938 18.297 20.832 19.393 C 19.913780755770862 20.03356664524525 18.968940309797286 20.635101717311045 17.999999999999996 21.195999999999998 C 17.025892286964847 21.75615974975507 16.024668526770533 22.267785091214364 15 22.729000000000003 C 13.974945902432424 22.26858844710189 12.973682583684285 21.75694289122159 12.000000000000007 21.196000000000005 C 11.030761399610203 20.635592957468443 10.085900376634736 20.034044785002074 9.168 19.393000000000004 C 9.057472399366372 18.265359481400623 9.001407238863933 17.13304347196729 9.000000000000007 16.000000000000007 z M 8.098 18.623 C 7.014944064888709 17.814750483120257 5.984210761292144 16.938660575364658 5.012000000000006 16.000000000000007 C 5.984210761292137 15.061339424635351 7.014944064888703 14.18524951687975 8.097999999999995 13.377000000000006 C 8.039 14.231 8 15.102 8 16 C 8 16.898 8.039 17.769 8.098 18.623 z M 9.321000000000002 11.286000000000001 C 9.490368772838089 10.018810550980858 9.745623031412919 8.764590018664261 10.085000000000008 7.532000000000004 C 11.338365109896397 7.855017719842382 12.568494980978656 8.262276903125723 13.767000000000014 8.751000000000003 C 13.005 9.120000000000001 12.245000000000001 9.508000000000001 11.500000000000002 9.938 C 10.761553969636699 10.367452000566 10.034950818175055 10.81695225213567 9.320999999999989 11.286000000000014 z M 16.232 8.751000000000001 C 17.43050501902136 8.26227690312572 18.66063489010359 7.855017719842378 19.913999999999987 7.5319999999999965 C 20.235999999999997 8.682 20.493999999999996 9.945 20.677999999999997 11.286000000000001 C 19.96419089632401 10.816730040463142 19.237581601606152 10.367225988476147 18.49899999999999 9.938000000000002 C 17.758167593510038 9.514626071381755 17.001988034573923 9.118690854594304 16.23199999999997 8.750999999999992 z M 21.902 13.377000000000002 C 22.985495812407873 14.184697319804005 24.01626333750428 15.06081631472555 24.987999999999985 15.999999999999986 C 24.01578923870786 16.93866057536465 22.98505593511129 17.814750483120257 21.901999999999997 18.623 C 21.961000000000002 17.769000000000002 22 16.898 22 16 C 22 15.102 21.961 14.231 21.902 13.376999999999999 z M 20.679000000000002 20.714000000000002 C 20.509631227161915 21.981189449019144 20.2543769685871 23.23540998133575 19.91500000000001 24.468000000000004 C 18.661634890103606 24.14498228015762 17.43150501902136 23.737723096874284 16.232999999999997 23.249000000000002 C 17.003411334352787 22.881501567343197 17.759931047383184 22.485562899191923 18.500999999999994 22.062 C 19.238984701917275 21.63232560047717 19.96524866107512 21.182828898482313 20.67900000000001 20.713999999999988 z M 11.5 22.062 C 12.245 22.492 13.004999999999999 22.881 13.768 23.249000000000002 C 12.569494980978641 23.737723096874284 11.3393651098964 24.144982280157624 10.086000000000006 24.468000000000004 C 9.746623031412911 23.235409981335746 9.49136877283809 21.98118944901915 9.322000000000001 20.714000000000006 C 10.012 21.165000000000003 10.727 21.615000000000002 11.5 22.062 z M 28.567 23.5 C 27.979 24.519 26.477 25.079 24.337 25.079 C 23.281 25.079 22.119 24.933 20.905 24.684 C 21.324313306801667 23.14099827007051 21.617610868713978 21.566488667467134 21.782 19.976000000000003 C 23.328 18.892 24.633 17.808 25.722 16.747 C 28.254 19.429 29.448 21.973 28.567 23.5 z M 24.336 6.921 C 26.476 6.921 27.979 7.482 28.566 8.5 C 29.448 10.027 28.253 12.571 25.721 15.253 C 24.632 14.193 23.326999999999998 13.108 21.781 12.024000000000001 C 21.616610868713977 10.43351133253287 21.323313306801666 8.85900172992948 20.904 7.315999999999992 C 22.118 7.067000000000001 23.281 6.921000000000001 24.336 6.921000000000001 z M 15 1 C 16.839 1 18.516 3.199 19.627 6.579 C 18.124 6.96 16.561 7.499 15 8.177999999999999 C 13.503095682307498 7.521644734337904 11.955760021231198 6.9869160284677925 10.372999999999973 6.578999999999992 C 11.484 3.199 13.161 1 15 1 z M 1.433 8.5 C 2.021 7.481 3.5229999999999997 6.921 5.663 6.921 C 6.719 6.921 7.881 7.067 9.095 7.316000000000001 C 8.675686693198331 8.859001729929497 8.38238913128602 10.433511332532886 8.217999999999998 12.024000000000026 C 6.672 13.108 5.367 14.192 4.2780000000000005 15.253 C 1.746 12.571 0.552 10.027 1.433 8.5 z M 4.2780000000000005 16.747 C 5.367000000000001 17.807 6.672000000000001 18.892 8.218 19.976 C 8.402 21.676 8.699 23.259999999999998 9.095 24.683999999999997 C 7.882000000000001 24.932999999999996 6.720000000000001 25.078999999999997 5.664000000000001 25.078999999999997 L 5.663 25.078999999999997 C 3.523 25.078999999999997 2.0200000000000005 24.517999999999997 1.4329999999999998 23.499999999999996 C 0.5519999999999998 21.972999999999995 1.7459999999999998 19.428999999999995 4.2780000000000005 16.746999999999996 z M 15 18.5 C 16.378 18.5 17.5 17.379 17.5 16 C 17.5 14.620999999999999 16.378 13.5 15 13.5 C 13.622 13.5 12.5 14.621 12.5 16 C 12.5 17.378999999999998 13.622 18.5 15 18.5 z M 15 14.5 C 15.827 14.5 16.5 15.173 16.5 16 C 16.5 16.826999999999998 15.827 17.5 15 17.5 C 14.173 17.5 13.5 16.826999999999998 13.5 16 C 13.5 15.173000000000002 14.173 14.5 15 14.5 z" stroke-linecap="round" />
</g>
<g transform="matrix(NaN NaN NaN NaN 0 0)"  >
<g style=""   >
</g>
</g>
<g transform="matrix(NaN NaN NaN NaN 0 0)"  >
<g style=""   >
</g>
</g>
<g transform="matrix(NaN NaN NaN NaN 0 0)"  >
<g style=""   >
</g>
</g>
<g transform="matrix(NaN NaN NaN NaN 0 0)"  >
<g style=""   >
</g>
</g>
</svg>