<?xml version="1.0" encoding="UTF-8" standalone="no" ?>
<!DOCTYPE svg PUBLIC "-//W3C//DTD SVG 1.1//EN" "http://www.w3.org/Graphics/SVG/1.1/DTD/svg11.dtd">
<svg xmlns="http://www.w3.org/2000/svg" xmlns:xlink="http://www.w3.org/1999/xlink" version="1.1" width="1080" height="1080" viewBox="0 0 1080 1080" xml:space="preserve">
<desc>Created with Fabric.js 5.2.4</desc>
<defs>
</defs>
<rect x="0" y="0" width="100%" height="100%" fill="transparent"></rect>
<g transform="matrix(1 0 0 1 540 540)" id="7ec8d624-878b-4cc7-bcbb-b34d6c524198"  >
</g>
<g transform="matrix(1 0 0 1 540 540)" id="1bf11173-cca8-4e00-a706-a998f3d3e871"  >
<rect style="stroke: none; stroke-width: 1; stroke-dasharray: none; stroke-linecap: butt; stroke-dashoffset: 0; stroke-linejoin: miter; stroke-miterlimit: 4; fill: rgb(255,255,255); fill-rule: nonzero; opacity: 1; visibility: hidden;" vector-effect="non-scaling-stroke"  x="-540" y="-540" rx="0" ry="0" width="1080" height="1080" />
</g>
<g transform="matrix(0 0 0 0 0 0)"  >
<g style=""   >
</g>
</g>
<g transform="matrix(0 0 0 0 0 0)"  >
<g style=""   >
</g>
</g>
<g transform="matrix(0 0 0 0 0 0)"  >
<g style=""   >
</g>
</g>
<g transform="matrix(0 0 0 0 0 0)"  >
<g style=""   >
</g>
</g>
<g transform="matrix(0 0 0 0 0 0)"  >
<g style=""   >
</g>
</g>
<g transform="matrix(0 0 0 0 0 0)"  >
<g style=""   >
</g>
</g>
<g transform="matrix(0 0 0 0 0 0)"  >
<g style=""   >
</g>
</g>
<g transform="matrix(0 0 0 0 0 0)"  >
<g style=""   >
</g>
</g>
<g transform="matrix(NaN NaN NaN NaN 0 0)"  >
<g style=""   >
</g>
</g>
<g transform="matrix(NaN NaN NaN NaN 0 0)"  >
<g style=""   >
</g>
</g>
<g transform="matrix(NaN NaN NaN NaN 0 0)"  >
<g style=""   >
</g>
</g>
<g transform="matrix(NaN NaN NaN NaN 0 0)"  >
<g style=""   >
</g>
</g>
<g transform="matrix(NaN NaN NaN NaN 0 0)"  >
<g style=""   >
</g>
</g>
<g transform="matrix(NaN NaN NaN NaN 0 0)"  >
<g style=""   >
</g>
</g>
<g transform="matrix(NaN NaN NaN NaN 0 0)"  >
<g style=""   >
</g>
</g>
<g transform="matrix(NaN NaN NaN NaN 0 0)"  >
<g style=""   >
</g>
</g>
<g transform="matrix(1 0 0 1 540 540)" id="f2769159-882f-4a46-88cf-c55e259d939c"  >
<path style="stroke: rgb(209,2,32); stroke-width: 0; stroke-dasharray: none; stroke-linecap: butt; stroke-dashoffset: 0; stroke-linejoin: miter; stroke-miterlimit: 4; fill: rgb(209,2,32); fill-rule: nonzero; opacity: 1;" vector-effect="non-scaling-stroke"  transform=" translate(-11, -16)" d="M 11 0 C 5.71 0 0 4.206 0 11 C 0 14.353 1.334 17.174 3.896 19.311999999999998 C 3.9226056866426964 19.34530426830417 3.9535467172529684 19.374900036713996 3.988 19.4 C 5.889 21.462 5.985 21.854 5.997999999999999 22.761 C 6.004 23.119999999999997 6.0009999999999994 23.226 5.997999999999999 23.284 L 5.994 23.493 C 5.979 23.945 5.9559999999999995 24.701999999999998 6.893 24.988 L 14.986999999999998 26.769 C 15.256791100292341 26.828094468231892 15.523405531768104 26.65729110029234 15.5825 26.3875 C 15.641594468231894 26.117708899707655 15.470791100292342 25.851094468231892 15.200999999999999 25.791999999999998 L 7.145999999999999 24.020999999999997 C 6.990999999999999 23.973999999999997 6.977999999999999 23.97 6.991999999999999 23.522999999999996 L 6.994999999999999 23.331999999999997 C 6.994999999999999 23.331999999999997 7.004999999999999 23.253999999999998 6.996999999999999 22.746 C 6.977999999999999 21.477 6.701999999999999 20.863999999999997 4.687999999999999 18.686999999999998 C 4.649587156449467 18.63957404810944 4.602816129584758 18.59958143093527 4.549999999999999 18.569 C 2.194 16.566 1 14.02 1 11 C 1 4.823 6.19 1 11 1 C 15.916 1 21 4.741 21 11 C 21 14.978 19.072 17.171 17.482 18.551000000000002 C 17.42652711016798 18.577675913621487 17.376639193795164 18.614667633925144 17.335 18.660000000000004 C 15.298000000000002 20.864000000000004 15.022 21.477000000000004 15.003 22.746000000000002 L 15.003 22.849000000000004 L 15.002 22.884000000000004 C 14.999 22.960000000000004 14.988000000000001 23.002000000000002 14.989 23.018000000000004 L 14.872 23 L 10.677 22.013 C 10.408037326832403 21.949763396144377 10.138736603855625 22.116537326832407 10.0755 22.385500000000004 C 10.012263396144375 22.6544626731676 10.179037326832404 22.923763396144377 10.448 22.987000000000002 L 14.592 23.959000000000003 C 14.647 23.979000000000003 15.145000000000001 24.141000000000002 15.565000000000001 23.846000000000004 C 15.748000000000001 23.717000000000002 15.961000000000002 23.464000000000002 15.999 22.980000000000004 L 16.002 22.933000000000003 L 16.003999999999998 22.834000000000003 L 16.002999999999997 22.808000000000003 L 16.003999999999998 22.762000000000004 C 16.017 21.860000000000003 16.110999999999997 21.468000000000004 18.008999999999997 19.406000000000006 C 18.017999999999997 19.399000000000004 18.027999999999995 19.392000000000007 18.035999999999998 19.384000000000007 C 20.703 17.143 22 14.4 22 11 C 22 4.115 16.407 0 11 0 z M 15 29.5 C 15.23374293689265 29.500399763255704 15.436309028388573 29.338180511339054 15.487 29.11 C 15.51654683932182 28.980689129675245 15.493393305568281 28.84493536143268 15.422654366733612 28.732728768798374 C 15.351915427898943 28.620522176164073 15.239412790720923 28.5410971905152 15.11 28.512 L 7.109999999999999 26.698 C 6.843762889904171 26.644089344083948 6.583186743049881 26.812604425216925 6.5231381589122694 27.07752464935345 C 6.463089574774657 27.34244487348997 6.625538148113413 27.606845557866706 6.888999999999999 27.673000000000002 L 14.889 29.487000000000002 C 14.925367595382928 29.4956406101002 14.962620030436947 29.50000350789932 15 29.5 z M 7.609 29.554 C 7.43196750894103 29.507178333163846 7.24350218491509 29.56087802801591 7.117734716835775 29.69397692113219 C 6.991967248756461 29.827075814248467 6.949020229711122 30.018278296299634 7.005786380549447 30.192377048434338 C 7.062552531387772 30.366475800569038 7.2099493590620805 30.495615301803003 7.39 30.529 L 13.89 31.987 C 14.06703249105897 32.033821666836154 14.255497815084912 31.980121971984087 14.381265283164227 31.84702307886781 C 14.507032751243543 31.71392418575153 14.549979770288882 31.522721703700363 14.493213619450556 31.34862295156566 C 14.43644746861223 31.174524199430955 14.28905064093792 31.04538469819699 14.109 31.011999999999997 L 7.609 29.554 z" stroke-linecap="round" />
</g>
<g transform="matrix(NaN NaN NaN NaN 0 0)"  >
<g style=""   >
</g>
</g>
<g transform="matrix(NaN NaN NaN NaN 0 0)"  >
<g style=""   >
</g>
</g>
<g transform="matrix(NaN NaN NaN NaN 0 0)"  >
<g style=""   >
</g>
</g>
<g transform="matrix(NaN NaN NaN NaN 0 0)"  >
<g style=""   >
</g>
</g>
</svg>