<?xml version="1.0" encoding="UTF-8" standalone="no" ?>
<!DOCTYPE svg PUBLIC "-//W3C//DTD SVG 1.1//EN" "http://www.w3.org/Graphics/SVG/1.1/DTD/svg11.dtd">
<svg xmlns="http://www.w3.org/2000/svg" xmlns:xlink="http://www.w3.org/1999/xlink" version="1.1" width="1080" height="1080" viewBox="0 0 1080 1080" xml:space="preserve">
<desc>Created with Fabric.js 5.2.4</desc>
<defs>
</defs>
<rect x="0" y="0" width="100%" height="100%" fill="transparent"></rect>
<g transform="matrix(1 0 0 1 540 540)" id="7ec8d624-878b-4cc7-bcbb-b34d6c524198"  >
</g>
<g transform="matrix(1 0 0 1 540 540)" id="1bf11173-cca8-4e00-a706-a998f3d3e871"  >
<rect style="stroke: none; stroke-width: 1; stroke-dasharray: none; stroke-linecap: butt; stroke-dashoffset: 0; stroke-linejoin: miter; stroke-miterlimit: 4; fill: rgb(255,255,255); fill-rule: nonzero; opacity: 1; visibility: hidden;" vector-effect="non-scaling-stroke"  x="-540" y="-540" rx="0" ry="0" width="1080" height="1080" />
</g>
<g transform="matrix(0 0 0 0 0 0)"  >
<g style=""   >
</g>
</g>
<g transform="matrix(0 0 0 0 0 0)"  >
<g style=""   >
</g>
</g>
<g transform="matrix(0 0 0 0 0 0)"  >
<g style=""   >
</g>
</g>
<g transform="matrix(0 0 0 0 0 0)"  >
<g style=""   >
</g>
</g>
<g transform="matrix(0 0 0 0 0 0)"  >
<g style=""   >
</g>
</g>
<g transform="matrix(0 0 0 0 0 0)"  >
<g style=""   >
</g>
</g>
<g transform="matrix(0 0 0 0 0 0)"  >
<g style=""   >
</g>
</g>
<g transform="matrix(0 0 0 0 0 0)"  >
<g style=""   >
</g>
</g>
<g transform="matrix(NaN NaN NaN NaN 0 0)"  >
<g style=""   >
</g>
</g>
<g transform="matrix(NaN NaN NaN NaN 0 0)"  >
<g style=""   >
</g>
</g>
<g transform="matrix(NaN NaN NaN NaN 0 0)"  >
<g style=""   >
</g>
</g>
<g transform="matrix(NaN NaN NaN NaN 0 0)"  >
<g style=""   >
</g>
</g>
<g transform="matrix(NaN NaN NaN NaN 0 0)"  >
<g style=""   >
</g>
</g>
<g transform="matrix(NaN NaN NaN NaN 0 0)"  >
<g style=""   >
</g>
</g>
<g transform="matrix(NaN NaN NaN NaN 0 0)"  >
<g style=""   >
</g>
</g>
<g transform="matrix(NaN NaN NaN NaN 0 0)"  >
<g style=""   >
</g>
</g>
<g transform="matrix(NaN NaN NaN NaN 0 0)"  >
<g style=""   >
</g>
</g>
<g transform="matrix(NaN NaN NaN NaN 0 0)"  >
<g style=""   >
</g>
</g>
<g transform="matrix(NaN NaN NaN NaN 0 0)"  >
<g style=""   >
</g>
</g>
<g transform="matrix(NaN NaN NaN NaN 0 0)"  >
<g style=""   >
</g>
</g>
<g transform="matrix(1 0 0 1 540 540)" id="8271a34e-f695-4e9e-b38e-65694ae657cc"  >
<path style="stroke: rgb(209,2,32); stroke-width: 0; stroke-dasharray: none; stroke-linecap: butt; stroke-dashoffset: 0; stroke-linejoin: miter; stroke-miterlimit: 4; fill: rgb(209,2,32); fill-rule: nonzero; opacity: 1;" vector-effect="non-scaling-stroke"  transform=" translate(-15.62, -16.01)" d="M 0.211 5.646 C -0.636 6.494 -0.45500000000000007 7.688 0.219 8.361 C 0.246 8.387 2.953 10.973 6.760000000000001 14.780000000000001 C 6.853540240917959 14.874536757562511 6.98100761224257 14.927731531536168 7.114000000000001 14.927731531536168 C 7.246992387757431 14.927731531536168 7.374459759082042 14.874536757562511 7.468000000000001 14.780000000000001 C 7.663190969166433 14.584750074257094 7.663190969166433 14.268249925742907 7.468000000000001 14.073 C 6.894000000000001 13.499 6.348000000000001 12.956 5.830000000000001 12.442 L 7.4190000000000005 10.853 C 7.608486104754057 10.656810556517845 7.605776186948559 10.344957611489438 7.412909287729561 10.15209071227044 C 7.220042388510563 9.959223813051441 6.908189443482154 9.956513895245942 6.712000000000001 10.145999999999999 L 5.119000000000001 11.738999999999999 C 4.3497994069923935 10.979490235491484 3.5781286524294575 10.22248622529183 2.80400000000006 9.468000000000155 L 6.4190000000000005 5.853 C 6.608486104754045 5.6568105565178435 6.605776186948541 5.344957611489447 6.412909287729548 5.152090712270454 C 6.220042388510554 4.95922381305146 5.908189443482157 4.956513895245956 5.712000000000001 5.146 L 2.086 8.772 C 1.35 8.059 0.926 7.654 0.919 7.647 C 0.7080000000000001 7.436 0.43100000000000005 6.8420000000000005 0.919 6.354 L 5.9190000000000005 1.354 C 6.112 1.1580000000000001 6.626 0.7690000000000001 7.19 1.33 C 7.215000000000001 1.358 9.74 4.226 13.594000000000001 8.08 C 13.790189443482156 8.269486104754057 14.102042388510563 8.266776186948558 14.294909287729562 8.07390928772956 C 14.48777618694856 7.881042388510562 14.490486104754059 7.569189443482155 14.301000000000002 7.373 C 10.471 3.544 7.965 0.698 7.919 0.646 C 6.986999999999999 -0.28400000000000003 5.8629999999999995 -0.0050000000000000044 5.212 0.646 L 0.2109999999999994 5.646 z M 21.418999999999997 24.146 C 21.22375007425709 23.950809030833568 20.907249925742903 23.950809030833568 20.711999999999996 24.146 L 19.120999999999995 25.736 C 18.612593724201403 25.220753436508407 18.102591273244837 24.707084301263862 17.590999999999966 24.19499999999992 C 17.394810556517843 24.005513895245933 17.082957611489423 24.008223813051423 16.89009071227042 24.201090712270428 C 16.697223813051416 24.39395761148943 16.694513895245926 24.70581055651785 16.883999999999993 24.902 C 19.026527868966173 27.039146374368475 21.13610992211109 29.209068874987974 23.211999999999854 31.410999999999845 C 23.554999999999993 31.755000000000003 24.02499999999999 31.944000000000003 24.534999999999993 31.944000000000003 C 25.05999999999999 31.944000000000003 25.590999999999994 31.739000000000004 25.919999999999995 31.409000000000002 L 30.917999999999996 26.352000000000004 C 31.546999999999997 25.723000000000003 31.582999999999995 24.656000000000002 30.995999999999995 24.067000000000004 L 24.289999999999996 17.362000000000002 C 24.093810556517845 17.172513895245935 23.781957611489425 17.175223813051424 23.589090712270423 17.36809071227043 C 23.396223813051417 17.56095761148943 23.393513895245924 17.87281055651785 23.582999999999995 18.069000000000003 L 30.288999999999994 24.774 C 30.488999999999994 24.974 30.450999999999993 25.406000000000002 30.209999999999994 25.647000000000002 L 25.210999999999995 30.704 C 25.095999999999997 30.82 24.834999999999994 30.944 24.534999999999997 30.944 C 24.362999999999996 30.944 24.116999999999997 30.901999999999997 23.930999999999997 30.715 C 23.920999999999996 30.704 23.502 30.257 22.775 29.496 L 26.418999999999997 25.851999999999997 C 26.608486104754064 25.655810556517846 26.605776186948574 25.343957611489426 26.41290928772957 25.151090712270424 C 26.220042388510567 24.95822381305142 25.908189443482147 24.95551389524593 25.711999999999996 25.144999999999996 L 22.082999999999995 28.773999999999997 C 21.33349714227294 27.994954055795837 20.580154637337746 27.2196112830174 19.822999999999947 26.447999999999947 L 21.418999999999993 24.851999999999997 C 21.6135254448555 24.65686512491337 21.6135254448555 24.341134875086624 21.418999999999993 24.145999999999997 z M -0.293 31.829 C -0.16295279500178192 31.96176848872561 0.03000382496365578 32.01145192979455 0.20800000000000013 31.958000000000002 L 10.208 28.979000000000003 C 10.288356672919347 28.955474871432504 10.361344642423433 28.911750946305055 10.42 28.852000000000004 L 27.509999999999998 11.647000000000006 C 27.534 11.623000000000006 27.546 11.592000000000006 27.563999999999997 11.565000000000005 L 31.219999999999995 7.909000000000004 C 31.51355453587351 7.617618994628688 31.67865570381512 7.2211147432371305 31.67865570381512 6.8075000000000045 C 31.67865570381512 6.393885256762879 31.51355453587351 5.997381005371321 31.219999999999995 5.706000000000005 L 25.985 0.472 C 25.397 -0.11599999999999999 24.37 -0.11599999999999999 23.782 0.472 L 20.043 4.211 C 20.019 4.235 20.006 4.266 19.988 4.2940000000000005 L 2.872 21.411 C 2.816051226716707 21.466659494105443 2.7742216493813086 21.534889706316463 2.75 21.610000000000003 L -0.41000000000000014 31.325000000000003 C -0.46794605959565105 31.501677359476602 -0.42285421912805543 31.69591913379855 -0.2930000000000002 31.829000000000004 z M 20.425 5.271 L 21.464000000000002 6.31 L 5.941 21.875 L 4.2139999999999995 21.483 L 20.425 5.271 z M 6.565 22.666 L 22.172 7.018 L 24.608 9.454 L 8.86 25 L 6.565 25 L 6.565 22.666 z M 26.449 11.296000000000001 L 10.205 27.65 L 9.628 25.648 L 25.314999999999998 10.161 L 26.448999999999998 11.296 z M 3.558 22.359 L 5.5649999999999995 22.815 L 5.5649999999999995 25.5 C 5.5649999999999995 25.7761423749154 5.788857625084603 26 6.0649999999999995 26 L 8.689 26 L 9.323 28.2 L 0.8350000000000009 30.729 L 3.5580000000000007 22.359 z M 24.49 1.179 C 24.710505143216693 0.9675654017526069 25.058494856783305 0.9675654017526067 25.279 1.1789999999999998 L 30.514 6.414000000000001 C 30.619463975283463 6.518245279423165 30.678733445715054 6.66041996222338 30.67854549993442 6.808709183143137 C 30.678357554153784 6.956998404062892 30.618727882620036 7.099022390865686 30.512999999999998 7.202999999999999 L 27.142 10.575 L 21.119 4.552 L 24.49 1.1789999999999994 z" stroke-linecap="round" />
</g>
<g transform="matrix(NaN NaN NaN NaN 0 0)"  >
<g style=""   >
</g>
</g>
<g transform="matrix(NaN NaN NaN NaN 0 0)"  >
<g style=""   >
</g>
</g>
<g transform="matrix(NaN NaN NaN NaN 0 0)"  >
<g style=""   >
</g>
</g>
<g transform="matrix(NaN NaN NaN NaN 0 0)"  >
<g style=""   >
</g>
</g>
</svg>